<svg viewBox="0 0 238 58" fill="none" xmlns="http://www.w3.org/2000/svg"><g clip-path="url(#a)"><path d="M75.069 15.115c-.03.418-.088.828-.154 1.238-.074.41-.155.82-.258 1.223a18.356 18.356 0 01-.758 2.387 16.55 16.55 0 01-2.51 4.343 14.642 14.642 0 01-3.81 3.325c-.73.44-1.494.82-2.282 1.135a18.46 18.46 0 01-2.435.776l-.17-.74c.802-.16 1.59-.38 2.362-.659a14.95 14.95 0 002.237-1.01 14.23 14.23 0 003.805-3.076 16.41 16.41 0 002.626-4.174 18.394 18.394 0 001.141-3.545c.08-.395.154-.805.206-1.223zm-69.131 0c.045.41.118.82.207 1.23a18.392 18.392 0 001.14 3.544 16.207 16.207 0 002.627 4.175 14.228 14.228 0 003.804 3.076c.714.396 1.465.732 2.237 1.01.773.279 1.56.491 2.362.66l-.17.74a19.184 19.184 0 01-2.435-.777 16.124 16.124 0 01-2.28-1.135 14.642 14.642 0 01-3.812-3.325 16.55 16.55 0 01-2.51-4.342 18.009 18.009 0 01-.757-2.388 22.535 22.535 0 01-.258-1.223 10.271 10.271 0 01-.155-1.245z" fill="#FF2C30"/><path d="M45.732 44.87l-1.847-1.81.515 2.527c0 .007.228 1.135.265 2.497.044 1.692-.213 2.98-.743 3.72a1.69 1.69 0 01-1.236.733 5.646 5.646 0 01-.582.037c-.713 0-1.214-.198-1.523-.601-.36-.469-.522-1.252-.493-2.329 0-.066.008-.139.008-.212.014-.315.051-.652.095-1.01.052-.367.11-.748.184-1.129.008-.021.008-.05.015-.073.147-.74.324-1.494.515-2.233.03-.103.051-.205.081-.308.118-.461.243-.908.36-1.347.074-.271.148-.528.214-.784.199-.725.463-1.487.743-2.285.28-.79.567-1.611.832-2.504.051-.169.095-.345.147-.513.007-.022.007-.044.015-.059l.007-.022v-.007c.257-.96.47-2 .596-3.149.015-.132.03-.27.037-.41.051-.586.08-1.201.08-1.853 0-3.09-.684-6.437-2.082-10.157-.022-.066-.051-.132-.073-.205a48.222 48.222 0 00-.663-1.648c-.007-.007-.007-.022-.014-.03a59.088 59.088 0 00-.964-2.145l-.14-.285a.353.353 0 01-.022-.052.217.217 0 00-.03-.058c-.588-1.209-1.567-3.23-1.802-5.23-.265-2.262.507-3.83 2.362-4.796.463-.242.927-.366 1.376-.366 1.376 0 2.553 1.12 3.186 2.175.927 1.53 1.994 1.882 2.112 1.919l.97.293c.523.395 1.097.593 1.708.593h.007c.199 0 .582-.066.89-.483.692-.938.744-3.435.111-5.456C49.934 2.57 46.262.71 46.107.63L44.85 0l.133 1.406.073.776a14.288 14.288 0 00-3.627-.234 8.6 8.6 0 00-.847.088 4.967 4.967 0 00-.456.08 9.944 9.944 0 00-3.385 1.311.883.883 0 00-.11.074c-.052.036-.103.065-.155.102-1.56 1.047-2.87 2.636-3.45 4.907-.221.864-.325 1.845-.31 2.914 0 .235.015.476.03.718.03.44.073.886.132 1.347.096.667.228 1.34.398 2.022a22.664 22.664 0 001.295 3.749c.176.396.492 1.267.846 2.424.059.19.434 1.472.508 1.728.14.506.28 1.04.412 1.59.102.41.206.856.309 1.318.08.38.161.769.242 1.179.067.359.14.725.2 1.098.036.213.065.425.102.637.125.835.228 1.692.287 2.534a22.819 22.819 0 01.044 1.055c0 .095.008.19.008.285 0 .213 0 .425-.008.63-.044 1.458-.397 3.156-.78 4.614-.066.241-.132.476-.191.703-.243.85-.478 1.574-.64 2.065-.037.11-.066.205-.096.286-.066.19-.103.315-.132.395-.06.205-.118.403-.17.6l-.066.257c-.066.242-.125.49-.184.725-.33 1.399-.53 2.71-.596 3.925-.014.234-.022.461-.022.688v.33c0 .168.008.344.015.513.007.146.015.3.03.439.11 1.31.411 2.49.897 3.523.154.33.331.644.53.944.073.11.147.22.22.322.126.169.258.337.39.491a7.663 7.663 0 002.715 1.992c.192.088.39.161.59.234l.397.132c.699.205 1.42.33 2.112.352h.169c.338 0 .662-.03.971-.088a4.472 4.472 0 001.023-.315c.883-.38 1.633-1.025 2.207-1.897a6.786 6.786 0 00.788-1.692c.39-1.244.47-2.658.235-4.042-.316-1.728-1.089-3.266-2.2-4.365zm-4.68-3.37a3.669 3.669 0 00-.235-.483 3.905 3.905 0 00-.14-.234c.044-.037.096-.073.14-.117.265-.22.515-.454.758-.703-.184.535-.368 1.047-.523 1.538zm.721-2.101c0 .007-.007.007 0 0a9.41 9.41 0 01-1.148 1.025c-.044.03-.08.059-.125.088a9.158 9.158 0 00-.397-.535c-.258-.329-.523-.651-.773-.98a10.067 10.067 0 01-.566-.814c.294-.132.588-.278.875-.424a12.674 12.674 0 002.561-1.78c.007.007.015.007.022.015.162.117.317.249.464.388a30.857 30.857 0 01-.913 3.017zm-3.716-3.369a17.04 17.04 0 00.25-2.292v-.161c.545.447 1.141.813 1.744 1.142.368.206.744.403 1.112.608.257.147.515.293.765.462a12.076 12.076 0 01-2.502 1.552c-.302.14-.603.271-.912.396a5.097 5.097 0 01-.324-.843 4.305 4.305 0 01-.133-.864zm.067 1.846c-.06.022-.126.044-.184.066-.103.036-.214.073-.317.11.066-.264.133-.542.192-.813a5.1 5.1 0 00.309.637zm-.236-9.264c.066-.066.14-.125.206-.19.008.007.015.014.03.014.426.25.868.454 1.317.637.449.183.897.352 1.339.535.375.154.743.315 1.096.505-.147.147-.294.293-.448.432-.567.505-1.193.945-1.847 1.304a6.94 6.94 0 01-1.016.454c-.088.03-.17.058-.258.08a34.322 34.322 0 00-.419-3.771zm4.827 7.63a4.792 4.792 0 00-.397-.373l.022-.022c.199-.19.39-.38.574-.586a12.9 12.9 0 01-.199.982zm.287-1.457a11.66 11.66 0 01-.927.887 9.986 9.986 0 00-.787-.542c-.353-.227-.714-.447-1.067-.674-.685-.44-1.34-.908-1.884-1.48a4.08 4.08 0 00.42-.153 7.686 7.686 0 001.059-.564c.67-.425 1.28-.923 1.832-1.487.162-.168.317-.344.464-.52.39.235.75.52 1.045.864.03.037.059.066.08.103a20.02 20.02 0 01-.235 3.566zm.228-3.69c-.007-.008-.007-.015-.014-.022a4.373 4.373 0 00-1.009-.938 3.05 3.05 0 00.192-.256 5.8 5.8 0 00.596-1.01.45.45 0 00.037-.089c.11.813.169 1.582.198 2.314zm-.243-2.593c-.044.095-.088.198-.14.293a5.416 5.416 0 01-.64.937 7.775 7.775 0 01-.22.257 9.606 9.606 0 00-1.119-.594c-.434-.205-.875-.395-1.302-.6-.412-.198-.81-.41-1.185-.652.103-.102.206-.205.302-.315a13.561 13.561 0 001.89-2.548c.075-.132.148-.264.222-.403.316.125.618.271.897.461.295.198.567.432.802.696.221.864.383 1.684.493 2.468zm-.537-2.695a4.294 4.294 0 00-.662-.6 5.2 5.2 0 00-.898-.52c.14-.271.265-.55.383-.828.118-.293.228-.586.324-.886.346.989.625 1.94.853 2.834zm-2.082-6.02a7.501 7.501 0 01-1.398-.102 6.544 6.544 0 00.75-1.348c.228.498.442.982.648 1.45zm-1.847-4.02c-.052.007-.11.007-.162.007-.17 0-.331-.007-.5-.03a6.478 6.478 0 01-.979-.211c-.015-.008-.03-.008-.044-.015.059-.059.125-.125.184-.19l.051-.06.052-.058.103-.124.096-.125.044-.066.044-.066c.176-.263.338-.534.463-.82.2.623.42 1.216.648 1.758zm-.64-7.001c-.295-.271-.515-.623-.685-.974a5.133 5.133 0 01-.397-1.304c-.015-.087-.03-.168-.037-.256.118 0 .243.007.36.022.251.022.501.066.751.117.25.059.493.125.736.205.287.095.574.213.854.337a4.68 4.68 0 00-1.582 1.853zm-1.14-3.632c.029-.3.08-.6.169-.887a8.453 8.453 0 011.5-.798c.045 0 .082.008.126.008.213.022.42.065.625.117a4 4 0 01.567.197 7.77 7.77 0 00-.044 1.333c.022.271.051.55.132.813a3.355 3.355 0 01-.052-.813c.008-.27.037-.542.081-.813.023-.146.052-.285.081-.432.339.176.64.41.898.71l.052-.036A2.79 2.79 0 0040 3.559c.059-.227.125-.447.206-.659a9.43 9.43 0 011.288-.168c.301-.015.596-.022.868-.022 2.288 0 3.598.534 3.598.534l-.176-1.911s3.517 1.75 4.444 4.709c.736 2.343.368 4.914-.25 4.92h-.008c-1.155 0-1.89-1.01-2.391-1.845a.145.145 0 00-.125-.073c-.088 0-.184.08-.147.198.176.63.22.871.22.871s-.868-.263-1.67-1.574c-.75-1.238-2.141-2.556-3.863-2.556-.552 0-1.14.14-1.744.454a6.421 6.421 0 00-.706.425 7.254 7.254 0 00-.854-.447 6.62 6.62 0 00-1.508-.483 4.438 4.438 0 00-.434-.066c-.03-.242-.03-.49-.008-.732zm-.472-.418c-.007.132-.007.271-.007.403.007.242.03.476.066.718a3.08 3.08 0 00-.368 0c-.066 0-.132.007-.206.014a1.04 1.04 0 00-.206.022 5.08 5.08 0 00-.463.073 7.882 7.882 0 011.184-1.23zm-1.692 2.007a4.094 4.094 0 011.06-.396c.058-.014.117-.029.183-.036.06-.008.126-.022.184-.03.126-.014.243-.029.368-.029h.037c.022.11.052.212.081.322.133.462.316.908.567 1.311.125.205.264.396.426.571.118.132.25.25.39.352a5.036 5.036 0 00-.404 1.34c-.155.132-.31.264-.471.388a5.913 5.913 0 01-.574.374c-.037.022-.074.044-.11.058a6.202 6.202 0 01-1.008-.784 4.444 4.444 0 01-.501-.556 2.791 2.791 0 01-.213-.3 1.618 1.618 0 01-.096-.154c-.037-.051-.059-.102-.088-.161a3.869 3.869 0 01-.39-1.04c.154-.454.338-.857.559-1.23zm2.826 4.804a8.767 8.767 0 01-.869-.44s.008 0 .008-.007c.19-.14.375-.293.544-.447.125-.11.236-.227.353-.351a7.66 7.66 0 00-.036 1.245zm-3.658-2.702a4.507 4.507 0 00.361.57c.044.052.08.11.125.162.088.102.177.205.265.3.184.198.383.374.596.535.213.16.427.315.655.446l.353.198a4.998 4.998 0 01-.294.125c-.42.16-.854.234-1.28.212a2.548 2.548 0 01-.913-.22c-.044-.022-.081-.044-.125-.058.015-.828.096-1.59.257-2.27zm-.132 4.29a14.74 14.74 0 01-.11-1.376c.088.03.184.044.272.066.25.051.508.059.758.044.5-.03.978-.176 1.405-.396.155-.08.31-.168.456-.263.015.007.037.014.052.03.316.146.633.27.964.373.051.798.22 1.61.456 2.372-.17.279-.36.535-.574.777l-.051.058-.052.059-.11.11-.11.102-.06.052-.058.05a5.47 5.47 0 01-.324.257 6.939 6.939 0 01-1.442-.71c-.545-.36-1.023-.82-1.347-1.362a7.358 7.358 0 00-.125-.242zm.662 3.062h-.014a20.303 20.303 0 01-.494-2.058c.096.095.192.183.287.271.265.227.56.425.861.593.45.25.92.44 1.398.579a4.26 4.26 0 01-1.037.469 4.033 4.033 0 01-.861.153c-.044-.014-.096-.007-.14-.007zm.17.586c.014 0 .029-.007.044-.007a4.512 4.512 0 00.957-.293 4.32 4.32 0 001.11-.689c.052-.044.096-.08.14-.124.052.014.096.022.147.036.331.074.67.125 1.008.14.17.007.339.007.508-.008a10.3 10.3 0 00.17-.022c.367.864.735 1.597.97 2.095.045.102.096.197.14.3-.059.11-.117.227-.184.337-.235.395-.5.769-.809 1.113a9.58 9.58 0 01-1.869-.535c-.714-.293-1.383-.688-1.935-1.193a43.95 43.95 0 01-.398-1.15zm.83 2.168c-.036-.074-.065-.154-.102-.228.103.06.206.125.309.176.383.213.787.381 1.192.52a9.824 9.824 0 001.825.418c-.044.05-.096.095-.14.146a6.92 6.92 0 01-2.2 1.45c-.375-1.194-.7-2.08-.883-2.482zm1.038 3.01c.015-.008.023-.015.037-.015.287-.147.56-.315.824-.49a7.216 7.216 0 001.671-1.583c.117.015.235.022.353.03.397.021.802.021 1.2-.008.419.982.787 1.919 1.096 2.812a9.746 9.746 0 01-.442 1.077c-.132.278-.272.55-.427.813-.059-.022-.125-.052-.184-.074-.47-.175-.964-.307-1.442-.439a21.484 21.484 0 01-1.427-.41 7.073 7.073 0 01-.876-.359c-.125-.476-.258-.93-.383-1.355zm.53 1.889c.206.073.412.139.618.198.486.139.979.234 1.472.336.486.103.971.205 1.435.36a.906.906 0 01.147.05c-.066.118-.14.227-.213.345a13.03 13.03 0 01-2.348 2.731c-.088-.066-.169-.139-.25-.205a46.816 46.816 0 00-.86-3.815zm-.412 18.176c.081-.27.56-1.604 1.016-3.28.323-.118.647-.25.97-.382.207.3.435.586.67.857.42.484.869.938 1.251 1.428-.743.513-1.56.916-2.413 1.23a17.01 17.01 0 01-1.464.477l-.14.044.11-.374zm.199.857c.493-.169.993-.352 1.471-.564.861-.373 1.693-.828 2.436-1.406.052.066.096.14.14.205.118.183.228.373.316.578-.066.22-.132.447-.191.66-.25.93-.544 1.97-.81 3.039-.323.19-.662.359-1.008.52-.132.058-.272.124-.412.183a9.442 9.442 0 01-1.133-1.099c-.515-.593-.942-1.26-1.214-1.977l.405-.14zm3.282 2.863c-.089.374-.17.747-.25 1.113-.133-.08-.265-.168-.398-.249-.132-.088-.257-.183-.39-.278a13.778 13.778 0 001.038-.586zm-3.908-2.145a7.65 7.65 0 001.207 1.603c.353.36.736.689 1.133.989-.588.242-1.184.469-1.78.718-.383.16-.766.337-1.14.542.058-1.143.242-2.417.58-3.852zm-.588 4.525c.073-.058.154-.11.235-.16.346-.228.729-.433 1.119-.623.625-.308 1.28-.593 1.913-.916.162.11.33.213.493.315.147.088.301.169.456.25-.235 1.17-.383 2.32-.331 3.31a4.991 4.991 0 01-.758.527c-.051.036-.11.058-.17.088-.007 0-.007.007-.014.007-.007-.008-.022-.008-.03-.015a6.5 6.5 0 01-1.442-.886 7.68 7.68 0 01-.632-.564c-.103-.095-.2-.205-.295-.307-.088-.103-.184-.213-.272-.323a11.149 11.149 0 01-.272-.351v-.352zm3.995 3.076a1.693 1.693 0 01-.272-.037 2.639 2.639 0 01-.397-.102c.206-.146.397-.308.574-.476.022.22.051.425.095.615zm-3.495.33a9.885 9.885 0 01-.449-2.256c.066.059.125.125.192.183.11.095.22.198.33.293.229.19.464.366.707.527.456.3.95.557 1.464.74l-.132.059-.177.073-.176.066a1.337 1.337 0 01-.184.058c-.125.037-.243.073-.368.095a6.126 6.126 0 01-1.207.162zm1.744 2.885a2.858 2.858 0 01-.213-.227l.125.022c.257.044.515.073.78.08a2.51 2.51 0 01-.405.096 4.32 4.32 0 01-.287.029zm9.536-2.68a2.416 2.416 0 00-.485-.572 1.64 1.64 0 00-.56-.322 1.217 1.217 0 00-.625-.044c.206-.014.412.03.596.117.184.088.339.213.478.36.25.27.412.607.515.959-.25 1.347-.868 2.555-1.817 3.332a2.5 2.5 0 00.037-.52 2.333 2.333 0 00-.184-.835 2.243 2.243 0 00-.45-.71 2.2 2.2 0 00-.308-.279 1.117 1.117 0 00-.375-.183c.132.044.242.125.345.213.103.088.192.19.273.3.154.22.28.461.36.718.074.256.11.52.096.776a2.144 2.144 0 01-.184.747c-.015.029-.022.051-.037.08a4.108 4.108 0 01-2.193.608h-.14a7.054 7.054 0 01-1.044-.11 2.3 2.3 0 00.574-.783c.147-.33.22-.689.22-1.04 0-.352-.058-.696-.184-1.018.067.337.074.674.023 1.003-.052.33-.17.637-.346.9a1.959 1.959 0 01-.67.63 1.797 1.797 0 01-.324.14 7.198 7.198 0 01-2.693-1.377 2.805 2.805 0 00.861-.483c.037-.03.074-.059.11-.096.03-.007.067-.007.096-.014a4.86 4.86 0 001.523-.476c-.456.19-.949.285-1.442.315.147-.154.272-.315.39-.49.184-.28.331-.58.427-.894a3.3 3.3 0 01-.552.798 3.11 3.11 0 01-.728.593 4.75 4.75 0 01-1.347-.242c-.059-.021-.125-.036-.184-.058l-.177-.066-.066-.03a7.183 7.183 0 01-.905-1.589 7.432 7.432 0 001.126-.278c.132-.044.257-.095.383-.146.066-.03.125-.059.19-.08.067-.03.126-.06.185-.089l.184-.095.176-.102.177-.11c.022-.015.051-.03.073-.044.17.044.339.073.516.088.095.007.198.014.294.007.28 1.274 1.06 2.116 2.678 2.116.214 0 .442-.014.677-.044 3.9-.483 2.392-7.88 2.392-7.88 1.663 1.62 2.31 4.102 2.045 6.299z" fill="#0FF"/><path d="M48.425 7.037c.118.323.272.535.405.674.176.183.176.183.294.007.125-.19.176-.68-.037-.893-.118-.124-.162-.168-.28-.293-.169-.176-.478-.425-.426-.19.03.11-.008.556.044.695zm-6.342 25.324a.623.623 0 100 1.245.623.623 0 100-1.245zm-1.303 5.376a.623.623 0 100 1.245.623.623 0 00.625-.623.628.628 0 00-.625-.622zm-1.861 6.473a.558.558 0 100-1.113.558.558 0 100 1.113zm2.589-16.015a.675.675 0 00.677-.674.675.675 0 00-.677-.674.675.675 0 00-.677.674c0 .372.303.674.677.674zm-1.847-5.537a.674.674 0 100-1.348c-.375 0-.677.3-.677.674a.669.669 0 00.677.674zm-2.199-4.702a.558.558 0 100-1.113.558.558 0 100 1.113zm-1.201-4.276a.477.477 0 10-.478-.476c0 .263.214.476.478.476z" fill="#0FF"/><path d="M46.563 27.858c-.08-.71-.044-1.436.045-2.146.095-.718.265-1.42.485-2.116a12.487 12.487 0 012.083-3.838 14.639 14.639 0 013.23-2.973 19.25 19.25 0 013.892-2.021 26.272 26.272 0 014.194-1.216c1.436-.278 2.878-.432 4.313-.52a56.457 56.457 0 014.312-.095c1.434.03 2.87.073 4.297.212-1.428.103-2.855.19-4.283.308-1.42.117-2.84.242-4.253.403-1.405.168-2.818.358-4.18.666-.684.154-1.368.33-2.038.535-.67.197-1.331.424-1.986.68a20.8 20.8 0 00-4.158 2.154l-.213.146-.206.154c-.14.103-.272.212-.412.315-.133.11-.272.22-.405.33-.522.446-1.03.93-1.486 1.45a13.18 13.18 0 00-2.237 3.493 11.554 11.554 0 00-.677 1.991 10.02 10.02 0 00-.214 1.04 8.135 8.135 0 00-.102 1.048z" fill="#9A39FF"/><path d="M63.929 16.191h.022a5.262 5.262 0 00-1.236-.615 5.614 5.614 0 011.214.615z" fill="#FF0"/><path d="M52.258 23.266a8.737 8.737 0 002.737 4.387c.442.38.928.717 1.435 1.01a8.886 8.886 0 003.319 1.077 8.78 8.78 0 003.466-.3 8.895 8.895 0 003.06-1.612 8.696 8.696 0 003.165-5.88 8.676 8.676 0 00-1.693-6.071h-.037a8.28 8.28 0 011.303 2.76 8.234 8.234 0 01-.927 6.335 8.327 8.327 0 01-5.063 3.764 8.458 8.458 0 01-3.179.198 8.259 8.259 0 01-3.009-1.003 8.203 8.203 0 01-2.413-2.05 8.376 8.376 0 01-1.472-2.813 8.272 8.272 0 01-.324-3.002c-.22.16-.434.322-.633.468-.059.916.03 1.846.265 2.732z" fill="#FFB000"/><path d="M55.216 20.886a5.555 5.555 0 002.708 4.724 5.674 5.674 0 003.304.806 5.575 5.575 0 002.193-.609 5.533 5.533 0 001.75-1.406 5.661 5.661 0 001.046-1.94 5.577 5.577 0 00-1.692-5.837 6.413 6.413 0 00-.567-.432h-.022c.198.139.39.293.574.454.507.476.92 1.054 1.192 1.684.28.63.419 1.318.419 1.992 0 .681-.14 1.347-.39 1.963a4.963 4.963 0 01-1.096 1.625 5.219 5.219 0 01-1.597 1.084 5.098 5.098 0 01-3.723.132 4.572 4.572 0 01-.861-.396 5.672 5.672 0 01-.773-.549 5.14 5.14 0 01-1.177-1.486 5.118 5.118 0 01-.552-1.846 5.06 5.06 0 01.773-3.237 14.52 14.52 0 00-.685.33 5.58 5.58 0 00-.824 2.944z" fill="#FF0"/><path d="M46.563 27.858a4.12 4.12 0 01.081-.667c.045-.22.089-.44.155-.659.118-.44.28-.864.456-1.281.368-.835.839-1.626 1.383-2.366 1.097-1.48 2.48-2.731 3.996-3.779.758-.52 1.553-.988 2.37-1.413.404-.212.816-.41 1.236-.6.206-.096.42-.183.632-.271a14.177 14.177 0 011.995-.689c.448-.117.905-.22 1.36-.307a28.956 28.956 0 012.723-.374c.457-.044.905-.08 1.354-.11.45-.029.905-.051 1.354-.073l1.347-.059 1.339-.05c.442-.015.89-.045 1.332-.067.441-.022.883-.051 1.317-.088.876-.08 1.744-.175 2.583-.351a14.286 14.286 0 001.236-.322 8.947 8.947 0 001.17-.484 9.103 9.103 0 002.112-1.435 10.936 10.936 0 002.37-3.105c.205-.396.39-.798.536-1.223-.147.886-.456 1.743-.853 2.563a10.03 10.03 0 01-1.546 2.278 9.68 9.68 0 01-1.008.966c-.36.293-.75.564-1.155.806a8.923 8.923 0 01-1.273.63c-.441.175-.89.322-1.34.439-.904.234-1.81.388-2.714.498-.905.117-1.81.19-2.708.249l-1.347.088-1.339.08c-.441.03-.89.059-1.332.096-.441.036-.883.073-1.317.117-.875.088-1.744.205-2.597.359a17.31 17.31 0 00-2.487.644c-.2.066-.39.147-.596.227a14.9 14.9 0 00-.604.25 21.81 21.81 0 00-1.192.534c-.787.373-1.56.776-2.303 1.23-1.486.9-2.87 1.963-4.055 3.244a14.162 14.162 0 00-1.589 2.08c-.228.373-.441.762-.633 1.157a8.622 8.622 0 00-.449 1.238z" fill="#005EFF"/><path d="M65.886 20.747c.804 0 1.457-.65 1.457-1.45 0-.801-.653-1.45-1.457-1.45-.805 0-1.457.649-1.457 1.45 0 .8.652 1.45 1.457 1.45z" fill="#fff"/><path d="M34.437 27.858a8.525 8.525 0 00-.11-1.062 12.406 12.406 0 00-.214-1.04 13.52 13.52 0 00-.677-1.992A13.18 13.18 0 0031.2 20.27a14.611 14.611 0 00-1.89-1.78c-.14-.102-.273-.212-.413-.315l-.206-.154-.213-.146a5.51 5.51 0 00-.434-.286 19.882 19.882 0 00-3.724-1.867 31.702 31.702 0 00-1.986-.681c-.67-.205-1.354-.38-2.039-.535-1.361-.307-2.767-.498-4.18-.666a136.41 136.41 0 00-4.252-.403c-1.42-.117-2.848-.205-4.283-.308 1.428-.139 2.862-.183 4.297-.212 1.435-.014 2.87.007 4.312.095 1.435.088 2.877.235 4.312.52.714.154 1.42.315 2.12.52.698.205 1.39.432 2.075.696a19.246 19.246 0 013.892 2.021 14.64 14.64 0 013.23 2.973 12.488 12.488 0 012.083 3.838c.22.688.397 1.399.485 2.116.096.725.14 1.45.052 2.16z" fill="#9A39FF"/><path d="M17.336 16.016c.302-.183.618-.33.949-.447a5.564 5.564 0 00-1.236.615h.022c.08-.051.17-.11.265-.168z" fill="#FF0"/><path d="M11.567 21.948a8.711 8.711 0 003.164 5.88 8.894 8.894 0 003.061 1.611 8.79 8.79 0 003.466.3 8.844 8.844 0 003.319-1.076 8.873 8.873 0 002.641-2.285 8.735 8.735 0 001.53-3.112 8.731 8.731 0 00.266-2.724 15.784 15.784 0 00-.633-.47 8.118 8.118 0 01-.324 3.003 8.313 8.313 0 01-3.885 4.863c-.927.52-1.95.864-3.01 1.003a8.308 8.308 0 01-3.178-.197 8.354 8.354 0 01-2.892-1.377 8.233 8.233 0 01-2.17-2.388 8.367 8.367 0 01-1.105-3.06 8.33 8.33 0 01.177-3.274 8.211 8.211 0 011.302-2.761h-.036a8.85 8.85 0 00-1.376 2.732 8.615 8.615 0 00-.317 3.332z" fill="#FFB000"/><path d="M15.173 18.272a5.62 5.62 0 00-.603 2.035c-.074.718 0 1.45.213 2.154a5.53 5.53 0 001.045 1.94 5.634 5.634 0 001.751 1.406 5.7 5.7 0 002.193.608 5.674 5.674 0 003.304-.805 6.02 6.02 0 00.92-.689 5.74 5.74 0 001.317-1.845 5.656 5.656 0 00.47-2.19 5.515 5.515 0 00-.816-2.937 11.692 11.692 0 00-.684-.33 5.044 5.044 0 01.772 3.238 5.21 5.21 0 01-.552 1.845 5.045 5.045 0 01-1.95 2.036 4.555 4.555 0 01-.86.395 5.043 5.043 0 01-1.87.286 5.097 5.097 0 01-1.854-.417 5.22 5.22 0 01-1.597-1.084 5.038 5.038 0 01-1.096-1.626 5.04 5.04 0 011.221-5.639 4.4 4.4 0 01.575-.454h-.023c-.198.132-.39.278-.566.432a5.387 5.387 0 00-1.31 1.64z" fill="#FF0"/><path d="M34.437 27.858c-.11-.432-.28-.85-.464-1.245a9.796 9.796 0 00-.633-1.157 13.66 13.66 0 00-1.589-2.08c-1.185-1.282-2.568-2.344-4.054-3.244a24.743 24.743 0 00-2.304-1.23c-.39-.191-.794-.36-1.192-.535-.198-.088-.404-.169-.603-.25-.206-.08-.397-.153-.596-.226a16.514 16.514 0 00-2.487-.645 33.567 33.567 0 00-2.598-.358c-.434-.045-.875-.081-1.317-.118a76.11 76.11 0 00-1.332-.095l-1.339-.08-1.346-.088a49.003 49.003 0 01-2.708-.25 20.543 20.543 0 01-2.715-.497 11.433 11.433 0 01-1.34-.44 8.924 8.924 0 01-1.273-.63 10.498 10.498 0 01-1.155-.805 9.67 9.67 0 01-1.008-.967A10.123 10.123 0 01.84 10.641C.456 9.835.147 8.97 0 8.085c.147.425.331.827.537 1.223.206.395.427.776.67 1.135a10.69 10.69 0 001.7 1.97 9.26 9.26 0 003.281 1.919 14.333 14.333 0 001.237.322c.838.176 1.707.278 2.582.351.434.037.876.066 1.317.088l1.332.066 1.34.051 1.346.06c.449.021.898.043 1.354.072.449.03.905.066 1.354.11a28.88 28.88 0 012.722.374c.457.088.905.19 1.362.307a12.9 12.9 0 011.339.425c.22.08.441.168.655.264.213.088.42.183.633.27.419.19.831.389 1.236.601.817.417 1.604.893 2.37 1.413 1.515 1.04 2.898 2.3 3.995 3.78.544.739 1.015 1.53 1.383 2.365a9.166 9.166 0 01.61 1.94c.045.22.074.447.082.667z" fill="#005EFF"/><path d="M15.114 20.747c.805 0 1.457-.65 1.457-1.45 0-.801-.652-1.45-1.457-1.45s-1.457.649-1.457 1.45c0 .8.652 1.45 1.457 1.45z" fill="#fff"/><path d="M46.6 29.535c-.588 8.51 3.253 16.506 19.691 28.238l.03.022.036-.176.471-2.387c.015-.088.95-5.06-.33-10.985l.014-.007c-.007-.015-.015-.022-.022-.037-.846-3.933-3.105-9.637-7.403-12.691-6.872-4.877-12.487-1.977-12.487-1.977zm1.774 5.368a32.85 32.85 0 01-.552-4.453s.574-.11 2.722 1.289c.287.183.906.718 1.148.952.089.08.17.168.258.256 0 .008-.008.008-.008.015-.044.08-.095.161-.14.234l-.066.117-.058.118c-.044.08-.074.16-.11.241-.148.323-.266.66-.376.989a12.908 12.908 0 00-.449 2.036c-.022.168-.051.344-.066.512-.022.169-.037.345-.052.513-.022.344-.044.688-.036 1.033 0 .688.051 1.376.184 2.05a11.15 11.15 0 01-.03-2.043c.052-.681.155-1.348.31-2.007.161-.659.36-1.303.617-1.918.133-.308.273-.608.434-.894.045-.073.081-.146.126-.212l.066-.103.066-.102c.022-.037.044-.066.066-.103.479.491.942.996 1.398 1.509.28.307.596.674.861.988 0 .008-.059.074-.11.147a3.33 3.33 0 00-.317.454c-.051.095-.11.198-.147.271-.184.366-.33.74-.456 1.128a9.565 9.565 0 00-.42 2.35 25.051 25.051 0 00-.036 2.351c.022.667.066 1.34.154 2-2.803-3.574-4.43-6.877-4.981-9.718zm7.16 12.28a48.025 48.025 0 01-2.15-2.526 18.632 18.632 0 01-.029-2.028c.03-.777.089-1.553.184-2.322.11-.762.302-1.508.589-2.212a7.54 7.54 0 01.508-1.003 4.2 4.2 0 01.316-.454c.052-.066.103-.132.162-.197a50.85 50.85 0 012.104 2.731l-.036.051c-.015.022-.022.03-.03.044l-.022.037-.044.073c-.03.051-.059.095-.081.147a5.268 5.268 0 00-.39.879 7.67 7.67 0 00-.316 1.215 9.927 9.927 0 00-.118 2.468c.059.813.147 1.618.272 2.417.118.717.258 1.435.456 2.13-.485-.49-.941-.973-1.376-1.45zm1.383 1.458a21.538 21.538 0 01-.331-2.175 24.03 24.03 0 01-.125-2.41 9.63 9.63 0 01.301-2.35 8.18 8.18 0 01.383-1.106c.08-.176.162-.351.257-.513.044-.08.096-.16.148-.241.022-.037.051-.073.073-.103a55.898 55.898 0 012.31 3.574c-.022.044-.05.08-.073.124a4.952 4.952 0 00-.346.754c-.125.345-.22.697-.287 1.048a8.655 8.655 0 00-.132 2.131c.037.703.11 1.406.213 2.102.089.6.199 1.208.353 1.794a83.271 83.271 0 01-2.744-2.629zm2.774 2.651c-.125-.6-.199-1.216-.265-1.824a19.97 19.97 0 01-.096-2.094 8.24 8.24 0 01.273-2.043c.088-.33.198-.652.338-.96.066-.153.147-.307.228-.446l.066-.11c.869 1.487 2.428 4.62 2.428 4.62s-.213.213-.242.235c-.044.059-.089.11-.133.169a2.624 2.624 0 00-.213.366 2.837 2.837 0 00-.265 1.208c0 .14.007.271.015.41.03.271.066.535.125.798.11.528.28 1.033.493 1.524a8.144 8.144 0 00.574 1.062 139.41 139.41 0 01-3.326-2.915zm3.377 2.944a4.398 4.398 0 01-.22-.41 6.36 6.36 0 01-.317-.725 7.292 7.292 0 01-.493-2.307c-.007-.132 0-.256.007-.388.008-.125.03-.256.052-.38.051-.25.132-.492.258-.711.058-.11.125-.213.206-.308.036-.051.08-.095.117-.139l.067-.066a.322.322 0 01.058-.051l.008-.008.022-.022c.007.015.014.023.014.037a64.505 64.505 0 011.641 3.808c.25.645.493 1.296.714 1.948.22.637.434 1.282.618 1.934-.066-.037-1.184-.901-2.752-2.212zm2.774 2.16a42.11 42.11 0 00-.559-1.89 60.594 60.594 0 00-.677-1.962c-.478-1.303-1-2.585-1.567-3.852.037 0 .066.008.103.008a2.457 2.457 0 011.052.41c.103.073.206.146.302.234.095.088.191.176.28.271.176.19.338.395.492.615.31.425.567.886.78 1.37.11.241.199.49.287.74 0 .006.008.021.008.028-.11 2.249-.42 3.684-.5 4.028zm.5-4.16a7.889 7.889 0 00-.95-2.11 7.018 7.018 0 00-.47-.65 9.386 9.386 0 00-.272-.308 3.641 3.641 0 00-.316-.27 2.72 2.72 0 00-1.354-.55c-.03 0-.059-.007-.088-.007a62.113 62.113 0 00-2.362-4.687h.014c.089.014.177.03.265.051.089.022.177.051.265.073l.265.088c.353.132.692.293 1.023.476.331.183.647.396.956.615a7.78 7.78 0 012.244 2.563c.185.337.347.682.486 1.048.133.344.243.703.31 1.062.029.959.014 1.83-.015 2.607zm-.352-6.7a36.65 36.65 0 01.36 4.086 5.885 5.885 0 00-.257-1.062 8.037 8.037 0 00-.435-1.076 8.008 8.008 0 00-1.31-1.933 8.112 8.112 0 00-.853-.813 10.849 10.849 0 00-.95-.696 7.555 7.555 0 00-1.044-.571c-.088-.044-.184-.073-.28-.117a2.197 2.197 0 00-.287-.096c-.368-.08-.699-.095-.699-.095s-.72-1.237-1.081-1.823a48.803 48.803 0 00-1.067-1.655 6.39 6.39 0 01.927.095c.427.073.846.19 1.258.337.412.146.81.33 1.2.534.39.213.765.447 1.125.703.721.52 1.376 1.128 1.965 1.802.294.337.574.688.832 1.054.176.257.345.513.507.784.03.169.06.359.089.542zm-.103-.645a10.435 10.435 0 00-.413-.74 11.572 11.572 0 00-.765-1.12 11.998 11.998 0 00-1.884-1.977 9.674 9.674 0 00-2.354-1.443 9.146 9.146 0 00-1.332-.439c-.596-.154-1.457-.227-1.457-.227l-.059-.066s-1.383-1.809-2.09-2.702c.067-.015.133-.03.192-.037a7.842 7.842 0 011.964-.051c.442.044.876.117 1.31.227.11.03.213.051.324.088l.162.044.162.051c.213.066.426.14.633.22.824.322 1.589.813 2.295 1.37.353.278.7.57 1.023.885.162.154.316.3.464.462a20.35 20.35 0 011.825 5.456zm-1.914-5.653c-.103-.117-.206-.234-.309-.344a15.09 15.09 0 00-.971-.967c-.338-.307-.692-.6-1.067-.864a8.457 8.457 0 00-1.2-.71 7.048 7.048 0 00-.647-.264l-.162-.059-.162-.058-.33-.11a10.479 10.479 0 00-1.362-.315 8.194 8.194 0 00-1.405-.102 7.209 7.209 0 00-1.074.094c-.06.008-.118.023-.185.037-.007 0-.022.008-.03.008a35.75 35.75 0 00-.838-1.004c-.331-.38-.662-.761-1.008-1.142l.206-.022c.206-.007.42-.015.633-.007.427.014.86.05 1.287.117.861.124 1.722.315 2.569.542.846.22 1.692.468 2.509.79.375.147.75.308 1.11.484a24.318 24.318 0 012.436 3.896zm-2.612-4.123c-.28-.154-.56-.3-.846-.44a20.133 20.133 0 00-2.48-.995 22.084 22.084 0 00-2.59-.689c-.441-.088-.89-.154-1.346-.19a7.203 7.203 0 00-.692-.03c-.118 0-.236.008-.353.015-.06 0-.236.03-.295.037 0 0-.765-.879-1.84-1.619-1.81-1.252-2.59-1.179-2.722-1.288.17.014 3.098-1.106 6.549.248 5.283 2.066 6.6 4.929 6.615 4.951zm-33.488-6.159c-4.062.542-6.498 2.688-8.484 4.921a1.46 1.46 0 00-.103.118c-7.77 8.883-3.922 22.658-4.666 23.917-.124.213.023-.022.023-.022C31.427 46.144 34.79 36.433 34.422 30.282c-.037-.615-2.473-1.868-6.55-1.326zm-7.587 5.302c5.997-6.459 11.87-4.233 12.112-4.277-.044.044-1.376-.314-5.474 3.442-.133.118-.98.308-1.156.352a1.71 1.71 0 01-.265.059c-.088.014-.176.029-.272.043-.36.044-.736.044-1.104 0-.044-.007-.095-.007-.14-.014l-.14-.022-.139-.022-.147-.022-.147-.022-.148-.015-.147-.014-.147-.008a6.051 6.051 0 00-1.207.022 3.72 3.72 0 00-1.155.323 2.147 2.147 0 00-.353.212c.007-.007.015-.022.03-.037zm-.228.279l.089-.066c.162-.11.33-.19.515-.257.36-.124.743-.175 1.118-.175.383 0 .758.044 1.133.11l.14.029.14.029.14.03.14.036.14.036.146.037.148.037a.866.866 0 01.147.03c.405.072.817.102 1.236.08.103-.008.206-.015.317-.03.073-.014.154-.022.228-.036-.324.351-2.149 2.841-2.502 3.075-.147.096-.258.235-.398.337-.28.213-.573.389-.89.52a2.737 2.737 0 01-.993.205 2.39 2.39 0 01-.508-.05c-.044-.008-.081-.023-.125-.03l-.14-.037c-.096-.022-.184-.044-.28-.058a3.217 3.217 0 00-1.155-.03 2.72 2.72 0 00-1.06.432 3.59 3.59 0 00-.617.535c.89-2.05 1.957-3.64 2.891-4.79zm-2.994 5.023c.25-.241.515-.461.809-.637a2.39 2.39 0 011-.33c.354-.036.707.015 1.053.11.088.022.17.052.257.074l.125.044c.045.014.096.029.14.044.192.058.39.095.589.11.397.029.802-.023 1.177-.14.14-.044.28-.095.42-.154-.464.74-1.847 3.479-2.627 3.875-.22.11-.449.227-.7.263-.25.044-.529.051-.809.051-.566 0-1.162-.029-1.744.096a2.419 2.419 0 00-.824.322c-.03.022-.066.044-.095.066.323-1.406.75-2.666 1.229-3.794zm-1.251 3.91a1.99 1.99 0 01.169-.094 2.15 2.15 0 01.802-.205c.56-.044 1.111.044 1.685.11.147.014.287.036.441.043.074.008.148.008.229.008.036 0 .08 0 .117-.008.037 0 .081 0 .118-.007a2.57 2.57 0 00.868-.249 50.35 50.35 0 00-.706 1.56s-.61 1.355-.64 1.399a1.53 1.53 0 01-.376.44 1.611 1.611 0 01-.507.27c-.184.059-.398.088-.611.117-.434.052-.883.088-1.317.235-.214.073-.42.175-.596.322a1.412 1.412 0 00-.228.242c-.015.014-.022.036-.037.05a25.66 25.66 0 01.589-4.232zm-.582 4.285c.022-.03.044-.051.066-.08.074-.081.162-.147.25-.206a1.71 1.71 0 01.59-.234c.419-.088.853-.073 1.294-.073.11 0 .221 0 .339-.008.118-.007.235-.022.353-.043a1.91 1.91 0 00.552-.22c-.191.52-.375 1.04-.56 1.567-.168.483-.492 1.582-1.037 2.131a.827.827 0 01-.294.183.65.65 0 01-.17.051l-.102.03-.103.036c-.265.095-.5.257-.685.447a2.044 2.044 0 00-.412.615 29.01 29.01 0 01-.08-4.196zm.273 8.37c-.067.052.08-1.471-.155-3.771-.015-.132-.022-.271-.037-.403.067-.095.133-.19.206-.278.089-.095.177-.19.28-.264a1.7 1.7 0 01.677-.322l.088-.015.096-.014c.073-.015.147-.03.213-.051a1.372 1.372 0 00.434-.25c-.603 1.78-1.2 3.56-1.773 5.346-.007.008-.022.015-.03.023zm.095-.073a477.824 477.824 0 011.994-5.419c.044.183.133.337.221.483.191.293.405.542.537.843a1.9 1.9 0 01.147.952c-.03.322-.117.637-.228.944a88.343 88.343 0 01-2.67 2.197zm2.664-2.197c.14-.293.25-.6.309-.93.03-.168.044-.344.03-.512a1.768 1.768 0 00-.104-.513c-.11-.337-.323-.622-.47-.908a1.604 1.604 0 01-.155-.432c-.125-.542.324-1.545.508-2.014.242-.63.493-1.26.75-1.89.088.25.199.484.331.703.324.52.744.938 1.067 1.4.162.234.295.475.375.746.081.264.11.55.089.835a3.332 3.332 0 01-.17.842c-.058.205-.14.41-.227.608a68.18 68.18 0 01-2.333 2.065zm2.384-2.087c.096-.183.184-.366.258-.556.102-.271.198-.557.235-.85a2.42 2.42 0 00-.03-.893 3.083 3.083 0 00-.345-.835c-.31-.513-.7-.96-.95-1.45a3.022 3.022 0 01-.28-.77c-.102-.505.398-1.61.398-1.61.28-.615.56-1.223.861-1.831.081-.154.155-.315.236-.469.022.33.08.667.184.982.11.344.272.659.47.952.2.292.427.556.655.805.229.25.471.49.685.747.213.256.404.527.522.842.118.308.162.645.14.974-.022.337-.11.667-.22.989a4.07 4.07 0 00.286-.981 2.421 2.421 0 00-.08-1.026c-.104-.336-.288-.637-.494-.915-.206-.278-.427-.535-.64-.798a6.038 6.038 0 01-.574-.813 3.658 3.658 0 01-.375-.894 3.74 3.74 0 01-.11-.952l.007-.241c0-.82 1.479-3.105 2.17-4.109.037-.029.067-.05.104-.08.007-.008.022-.015.029-.022-.007.124-.007.256-.007.38.022.491.14.982.338 1.421.096.22.213.432.339.638.029.05.066.102.095.146l.103.14.199.277c.265.374.537.74.802 1.106.265.374.515.74.721 1.143.103.197.184.402.25.615.066.212.103.432.11.659.023.447-.05.893-.161 1.325-1.81 2.08-3.981 4.182-5.931 5.954zm9.367-10.882l-.331.637c-.7 1.325-1.81 2.805-3.105 4.291.147-.424.265-.871.272-1.325a3.139 3.139 0 00-.059-.696 3.5 3.5 0 00-.206-.666 9.286 9.286 0 00-.64-1.23c-.236-.396-.478-.784-.706-1.172l-.346-.579c-.11-.19-.206-.38-.28-.578a3.393 3.393 0 01-.243-1.23c0-.418.089-.828.243-1.216.081-.19.177-.381.287-.557.052-.088.11-.176.177-.256.03-.044.838-1.15 1.361-1.648.213-.205.61-.615.934-.806-.014.037-.022.074-.036.11a2.26 2.26 0 00-.074.388 2.362 2.362 0 000 .396c.022.264.103.52.206.747.22.454.53.82.824 1.164.302.345.604.674.876 1.033.265.351.5.732.662 1.15.162.41.243.856.25 1.303 0 .227-.014.447-.044.674-.007.014-.015.044-.022.066zm.17-.747a3.805 3.805 0 00-.155-1.377 5.116 5.116 0 00-.596-1.267c-.25-.395-.537-.754-.802-1.12-.265-.36-.523-.725-.67-1.106a1.57 1.57 0 01-.007-1.128c.132-.366.169-.447.456-.761 2.325-2.63 4.599-2.71 4.599-2.71s.787 2.746-2.907 10.047c.037-.19.067-.38.081-.578z" fill="#12FF72"/></g><path d="M96.518 26h3.344v-4.554l2.288-2.046 5.434 6.6h4.554l-7.348-8.712 6.974-5.962h-4.906l-6.996 6.27v-6.27h-3.344V26zm17.809 0h13.222v-2.816h-9.878v-3.432h8.69v-2.618h-8.69v-2.992h9.878v-2.816h-13.222V26zm21.626 0h3.344v-5.808l6.71-8.866h-4.158l-4.158 5.896-4.246-5.896h-4.334l6.842 8.866V26zm12.275 0h9.218c1.76 0 2.772-.22 3.696-.814 1.1-.726 1.76-2.046 1.76-3.498 0-1.1-.396-2.046-1.1-2.596-.418-.352-.814-.528-1.76-.792 1.496-.726 2.178-1.716 2.178-3.19 0-1.188-.528-2.31-1.364-2.97-.748-.572-1.738-.814-3.234-.814h-9.394V26zm3.344-2.618v-3.586h4.928c1.012 0 1.518.088 1.914.308.462.286.748.836.748 1.474 0 .704-.374 1.364-.924 1.606-.374.154-.726.198-1.76.198h-4.906zm0-6.094v-3.344h4.51c.902 0 1.342.088 1.716.308.44.264.726.814.726 1.386 0 1.144-.748 1.65-2.464 1.65h-4.488zm22.825-6.38c-5.302 0-8.932 3.168-8.932 7.744 0 2.398.836 4.268 2.552 5.698 1.65 1.364 3.85 2.068 6.402 2.068 5.28 0 8.91-3.124 8.91-7.656 0-4.686-3.586-7.854-8.932-7.854zm0 2.706c3.058 0 5.192 2.09 5.192 5.06 0 2.948-2.178 5.06-5.192 5.06-3.08 0-5.214-2.09-5.214-5.104 0-2.948 2.156-5.016 5.214-5.016zM184.219 26h3.674l1.496-3.3h6.864l1.562 3.3h3.982l-7.194-14.674h-3.344L184.219 26zm6.38-5.896l2.2-4.884 2.266 4.884h-4.466zM204.149 26h3.344v-5.5h4.07c2.002 0 2.574.616 2.794 3.036.176 1.716.176 1.804.33 2.464h3.718c-.374-.77-.418-.924-.572-2.97-.154-2.816-.682-3.63-2.53-4.026.858-.308 1.254-.506 1.672-.858.836-.704 1.276-1.672 1.276-2.882 0-1.54-.704-2.816-1.87-3.432-.748-.374-1.672-.506-3.608-.506h-8.624V26zm3.344-8.206V14.12h4.356c.946 0 1.254.022 1.606.154.704.22 1.1.836 1.1 1.628 0 .792-.396 1.408-1.078 1.694-.374.154-.66.198-1.628.198h-4.356zM221.594 26h7.26c2.244 0 3.696-.242 4.752-.792 2.266-1.188 3.652-3.718 3.652-6.644 0-2.508-1.034-4.686-2.882-6.028-1.21-.88-2.64-1.21-5.214-1.21h-7.568V26zm3.366-2.794v-9.064h3.564c1.276 0 1.936.066 2.508.264 1.584.528 2.486 2.068 2.486 4.29 0 2.024-.726 3.454-2.046 4.114-.66.308-1.298.396-2.904.396h-3.608z" fill="#0FF"/><path d="M107.684 47v-1.302h-9.576v-5.166h8.862v-1.281h-8.862v-4.956h9.408v-1.302H96.68V47h11.004zm11.015-7.182l5.46-6.825h-1.743l-4.557 5.838-4.557-5.838h-1.764l5.439 6.825L111.265 47h1.743l4.851-6.195L122.626 47h1.764l-5.691-7.182zM134.355 47V34.295h5.355v-1.302h-12.243v1.302h5.418V47h1.47zm20.92 0v-1.302h-9.576v-5.166h8.862v-1.281h-8.862v-4.956h9.408v-1.302h-10.836V47h11.004zm18.218 0V32.993h-1.449v12.306l-9.912-12.306h-1.806V47h1.449V34.673L171.666 47h1.827zm11.447 0V34.295h5.355v-1.302h-12.243v1.302h5.418V47h1.47zm9.916 0h1.449V32.993h-1.449V47zm14.27-14.301c-4.431 0-7.539 3.003-7.539 7.245 0 4.368 3.045 7.35 7.497 7.35 2.142 0 4.053-.672 5.355-1.932 1.344-1.26 2.163-3.255 2.163-5.25 0-4.431-3.003-7.413-7.476-7.413zm-.021 1.239c3.696 0 6.048 2.352 6.048 6.069 0 3.612-2.457 6.048-6.069 6.048-3.633 0-6.069-2.457-6.069-6.111 0-3.612 2.436-6.006 6.09-6.006zM235.068 47V32.993h-1.449v12.306l-9.912-12.306h-1.806V47h1.449V34.673L233.241 47h1.827z" fill="#12FF72"/><defs><clipPath id="a"><path fill="#fff" d="M0 0h81v58H0z"/></clipPath></defs></svg>