<svg xmlns="http://www.w3.org/2000/svg" xmlns:xlink="http://www.w3.org/1999/xlink"><defs><clipPath id="clip0_810:7115"><path fill="#fff" d="M0 0h81v58H0z"/></clipPath><clipPath id="clip0"><path fill="#fff" d="M0 0h105v76H0z"/></clipPath><clipPath id="a"><path transform="translate(4.375 4.375)" d="M0 0h21.875v21.875H0z"/></clipPath></defs><symbol id="android" viewBox="0 0 30 30"><path d="M8.625 22.438h1.488v1.487c0 .935.764 1.7 1.7 1.7.934 0 1.7-.765 1.7-1.7v-1.487h2.975v1.487c0 .935.765 1.7 1.7 1.7.934 0 1.7-.765 1.7-1.7v-1.487h1.487v-9.35H8.625v9.35zM21.63 4.481a.746.746 0 00-.425-.106c-.297 0-.574.17-.744.425l-1.275 2.21a6.37 6.37 0 00-8.393 0L9.518 4.8a.857.857 0 00-.744-.425.967.967 0 00-.425.106.86.86 0 00-.319 1.169l1.573 2.741a6.466 6.466 0 00-.978 3.421h12.75c0-1.21-.34-2.4-.999-3.42L21.95 5.65a.865.865 0 00-.319-1.169zm-9.074 5.632a.626.626 0 01-.637-.638c0-.361.276-.637.637-.637.362 0 .638.276.638.637a.626.626 0 01-.638.638zm4.888 0a.626.626 0 01-.638-.638c0-.361.276-.637.638-.637.361 0 .637.276.637.637a.626.626 0 01-.637.638zm6.906 2.975a1.28 1.28 0 00-1.275 1.275v4.25c0 .701.574 1.275 1.275 1.275s1.275-.574 1.275-1.275v-4.25a1.28 1.28 0 00-1.275-1.275zm-18.7 0a1.28 1.28 0 00-1.275 1.275v4.25c0 .701.574 1.275 1.275 1.275s1.275-.574 1.275-1.275v-4.25a1.28 1.28 0 00-1.275-1.275z"/></symbol><symbol id="attach" viewBox="0 0 24 25"><path d="M16.5 6.5V18c0 2.21-1.79 4-4 4s-4-1.79-4-4V5.5a2.5 2.5 0 015 0V16c0 .55-.45 1-1 1s-1-.45-1-1V6.5H10V16a2.5 2.5 0 005 0V5.5c0-2.21-1.79-4-4-4s-4 1.79-4 4V18c0 3.04 2.46 5.5 5.5 5.5S18 21.04 18 18V6.5h-1.5z"/></symbol><symbol id="autohotkey" viewBox="0 0 24 24"><path d="M20 2H4c-1.1 0-2 .9-2 2v16c0 1.1.9 2 2 2h16c1.1 0 2-.9 2-2V4c0-1.1-.9-2-2-2z" fill="#989898"/><path d="M9 17.1l1.1-2.8h3.7l1.2 2.8h1.9L12.6 6.9h-1.7L7.1 17.1H9zm2.8-7.5l1.2 2.9h-2.3l1.1-2.9z" fill="#fff"/></symbol><symbol id="bell" viewBox="0 0 24 24"><path d="M12 22c1.1 0 2-.9 2-2h-4c0 1.1.9 2 2 2zm6-6v-5c0-3.07-1.63-5.64-4.5-6.32V4c0-.83-.67-1.5-1.5-1.5s-1.5.67-1.5 1.5v.68C7.64 5.36 6 7.92 6 11v5l-2 2v1h16v-1l-2-2zm-2 1H8v-6c0-2.48 1.51-4.5 4-4.5s4 2.02 4 4.5v6z"/></symbol><symbol id="built-it" viewBox="0 0 24 24"><path d="M19.9 7.3c0 .3-.1.6-.1.9-.1.3-.1.6-.2.9-.1.6-.3 1.1-.5 1.7-.4 1.1-1 2.1-1.7 3-.7.9-1.6 1.7-2.7 2.3-.5.3-1 .6-1.6.8-.5.2-1.1.4-1.7.5l-.1-.5c.6-.1 1.1-.3 1.6-.5s1.1-.4 1.6-.7c1-.6 1.9-1.3 2.6-2.2.7-.9 1.4-1.9 1.8-2.9.2-.5.4-1.1.6-1.6.1-.3.1-.6.2-.8.1-.3.1-.6.2-.9z" fill="#000" stroke="#000" stroke-width=".25" stroke-miterlimit="10"/><path d="M11.2 17.6l-.2-.9h.2c.5-.1 1.1-.3 1.6-.5s1-.4 1.5-.7c1-.5 1.9-1.3 2.6-2.1.7-.8 1.3-1.8 1.8-2.9.2-.5.4-1.1.6-1.6.1-.3.2-.6.2-.8.1-.3.1-.6.1-.8h.4c0 .3-.1.6-.1.9 0 .2-.1.6-.2.9-.1.6-.3 1.1-.5 1.7-.4 1.1-1 2.2-1.8 3.1-.8.9-1.7 1.7-2.7 2.4-.5.3-1.1.6-1.6.8-.5.2-1.1.4-1.7.6l-.2-.1zm.3-.6v.1c.5-.1 1-.3 1.5-.5s.9-.4 1.4-.7c-.5.3-.9.5-1.4.6-.5.3-1 .4-1.5.5z" fill="#000" stroke="#000" stroke-width=".25" stroke-miterlimit="10"/><path d="M0 16.2c-.1-.5 0-1 0-1.5l.3-1.5c.3-1 .8-1.9 1.4-2.7.8-.8 1.6-1.5 2.4-2 .8-.5 1.8-1 2.7-1.4.5-.2 1-.3 1.4-.5.5-.1 1-.3 1.5-.4 1-.2 2-.3 3-.4 1-.1 2-.1 3-.1s2 .1 3 .1c-1 .1-2 .1-3 .2l-3 .3c-1 .1-2 .3-2.9.5-.4.2-.9.3-1.3.5-.5.1-1 .3-1.4.4-.9.4-1.8.8-2.6 1.3-.1.1-.2.2-.3.2-.1.1-.1.1-.2.1l-.1.1-.3.3c-.1 0-.2.1-.3.2-.4.3-.7.7-1 1-.6.7-1.2 1.5-1.6 2.4-.2.4-.4.9-.5 1.4-.1.2-.1.5-.1.7 0 .3-.1.6-.1.8z" fill="#000"/><path d="M12.1 8c-.3-.2-.5-.3-.8-.4.2.1.5.2.7.3 0 .1.1.1.1.1z" fill="#FF0"/><path d="M4 13c.2.8.6 1.5 1.1 2.2.3.3.5.6.8.9.3.3.6.5 1 .7.7.4 1.5.7 2.3.8.8.1 1.6 0 2.4-.2.8-.2 1.5-.6 2.1-1.1.6-.5 1.1-1.1 1.5-1.8.4-.7.6-1.5.7-2.3.1-.8 0-1.6-.2-2.3-.2-.7-.5-1.3-1-1.9.4.6.7 1.2.9 1.9.2.7.2 1.5.1 2.3-.1.8-.4 1.5-.8 2.1-.4.7-.9 1.2-1.5 1.7s-1.3.8-2 1c-.6 0-1.4.1-2.1 0-.7-.1-1.4-.3-2.1-.7-.6-.4-1.2-.9-1.7-1.4-.5-.6-.8-1.2-1-2-.2-.7-.3-1.4-.2-2.1-.2.1-.3.2-.4.3-.1.6-.1 1.3.1 1.9z" fill="#000" stroke="#000" stroke-width=".25" stroke-miterlimit="10"/><path d="M9.9 17.8h-.7c-.8-.1-1.6-.4-2.4-.8-.4-.2-.7-.5-1-.7l-.9-.9c-.5-.8-.9-1.5-1.1-2.4-.2-.6-.2-1.3-.2-2v-.1l.1-.1c.1 0 .1-.1.2-.1.1-.1.2-.1.3-.2l.4-.3v.4c-.1.7 0 1.4.2 2 .2.7.5 1.3 1 1.9.4.6 1 1 1.6 1.4.6.4 1.3.6 2 .7.7.1 1.4 0 2.1-.1.7-.2 1.4-.5 1.9-.9.6-.4 1.1-1 1.5-1.6.4-.6.6-1.3.7-2.1.1-.7.1-1.5-.1-2.2-.2-.7-.5-1.3-.9-1.9l-.2-.3h.5l.1.1c.4.6.8 1.3 1 2 .2.8.3 1.6.2 2.4-.1.8-.3 1.6-.7 2.3-.4.8-.9 1.4-1.6 1.9-.7.5-1.4.9-2.2 1.2-.6.3-1.2.4-1.8.4zM4 11.2c0 .6 0 1.2.2 1.8.2.8.6 1.5 1 2.1.3.3.5.6.8.9.3.2.6.5 1 .7.7.4 1.5.6 2.2.7.8.1 1.6 0 2.3-.2.7-.2 1.5-.6 2.1-1.1h.1-.1c-.6.5-1.3.8-2.1 1-.8.2-1.5.2-2.3.1-.8-.1-1.5-.3-2.2-.7-.7-.4-1.3-.9-1.7-1.5-.5-.6-.8-1.3-1.1-2-.1-.6-.2-1.2-.2-1.8z" fill="#000" stroke="#000" stroke-width=".25" stroke-miterlimit="10"/><path d="M6.1 11.3c0 .5.1 1 .3 1.5.2.5.5.9.9 1.3.2.2.4.3.6.5.2.1.5.3.7.3.5.2 1 .3 1.6.2.5 0 1.1-.2 1.5-.4.5-.2.9-.6 1.2-1 .3-.4.6-.9.7-1.4.1-.5.2-1 .1-1.5 0-.5-.2-1-.4-1.4-.2-.4-.5-.8-.9-1.2-.1-.1-.3-.2-.4-.3.1.1.3.2.4.3.4.3.6.7.8 1.2.2.4.3.9.3 1.4 0 .5-.1.9-.3 1.4-.2.4-.4.8-.8 1.1-.3.3-.7.6-1.1.8-.4.2-.9.3-1.3.3s-.9-.1-1.3-.2l-.6-.3c-.2-.1-.4-.2-.5-.4-.3-.3-.6-.6-.8-1-.2-.4-.3-.8-.4-1.3 0-.5 0-.9.1-1.4.3-.2.4-.5.6-.8-.2.1-.3.2-.5.3-.1.1-.2.3-.2.5-.2.5-.4 1-.3 1.5z" fill="#000"/><path d="M0 16.2c0-.2 0-.3.1-.5 0-.2.1-.3.1-.5l.3-.9c.3-.6.6-1.1 1-1.7.8-1 1.7-1.9 2.8-2.6.5-.4 1.1-.7 1.6-1 .3 0 .6-.2.9-.3.1-.1.3-.1.4-.2.1-.1.3-.1.5-.2l.9-.3c.3-.1.6-.2.9-.2.6-.1 1.3-.2 1.9-.3.3 0 .6-.1.9-.1.3 0 .6 0 .9-.1h2.7c.3 0 .6 0 .9-.1.6-.1 1.2-.1 1.8-.2.1 0 .3-.1.4-.1.1 0 .3-.1.4-.1.3-.1.5-.2.8-.3.5-.3 1-.6 1.5-1 .7-.5 1.1-1 1.5-1.5.2-.3.3-.5.5-.8.1-.2.2-.5.3-.8-.1.6-.3 1.2-.6 1.8-.3.6-.6 1.1-1.1 1.6l-.7.7c-.3.2-.5.4-.8.6-.3.2-.6.3-.9.4l-.9.3c-.6.2-1.3.3-1.9.3-.6.1-1.3.1-1.9.2l-.9.1-.9.1c-.3 0-.6 0-.9.1-.3 0-.6.1-.9.1-.6.1-1.2.1-1.8.3-.7-.1-1.3 0-1.8.2-.1 0-.3.1-.4.2-.2.1-.3.1-.5.2s-.5.2-.8.3c-.5.3-1.1.5-1.6.9-1 .6-2 1.4-2.8 2.3-.4.5-.8.9-1.1 1.5-.2.3-.3.5-.4.8-.2.2-.3.5-.4.8z" fill="#000"/><path d="M0 16.2s0-3.4 1.6-5 3.5-3.8 7.8-4.6c4.3-.8 7.2-.8 9.4-.7 3.4.1 3.9-1.2 3.9-1.2S21.3 8 15 7.8L7.4 9.1l-3.5 2c-1.4.6-2.5 1.7-3.2 3L0 16.2z" fill="#000"/><path d="M10.2 15.1a3.8 3.8 0 100-7.6 3.8 3.8 0 000 7.6z" fill="#000"/><path d="M13.5 11.2a1 1 0 100-2 1 1 0 000 2z" fill="#fff"/></symbol><symbol id="close" viewBox="0 0 24 24"><path d="M18.984 6.422L13.406 12l5.578 5.578-1.406 1.406L12 13.406l-5.578 5.578-1.406-1.406L10.594 12 5.016 6.422l1.406-1.406L12 10.594l5.578-5.578 1.406 1.406z"/></symbol><symbol id="down" viewBox="0 0 24 24"><path d="M17.097 8.43L12.5 13.027 7.904 8.43 6.667 9.667 12.5 15.5l5.834-5.833-1.237-1.237z"/></symbol><symbol id="download" viewBox="0 0 24 24"><path d="M19 9h-4V3H9v6H5l7 7 7-7zM5 18v2h14v-2H5z"/></symbol><symbol id="file" viewBox="0 0 24 24"><path d="M8 16h8v2H8v-2zm0-4h8v2H8v-2zm6-10H6c-1.1 0-2 .9-2 2v16c0 1.1.89 2 1.99 2H18c1.1 0 2-.9 2-2V8l-6-6zm4 18H6V4h7v5h5v11z"/></symbol><symbol id="google-play" viewBox="0 0 30 30"><path d="M6.589 4.39c.394-.052.794.036 1.132.247l11.493 6.534-2.908 2.944-9.717-9.726zm-.884.883a2.042 2.042 0 00-.08.593v18.266c-.002.2.024.4.08.592L15.43 15 5.705 5.273zm10.61 10.61L6.588 25.61c.395.055.796-.032 1.132-.248l11.493-6.534-2.9-2.944zm7.532-2.069l-3.483-1.98-3.183 3.165 3.174 3.174 3.483-1.98c1.15-.655 1.15-1.733 0-2.388l.01.01z"/></symbol><symbol id="info" viewBox="0 0 24 24"><path d="M11 7h2v2h-2V7zm0 4h2v6h-2v-6zm1-9C6.48 2 2 6.48 2 12s4.48 10 10 10 10-4.48 10-10S17.52 2 12 2zm0 18c-4.41 0-8-3.59-8-8s3.59-8 8-8 8 3.59 8 8-3.59 8-8 8z"/></symbol><symbol id="logo-2" viewBox="0 0 238 58"><g clip-path="url(#clip0_810:7115)"><path d="M75.069 15.115c-.03.418-.088.828-.154 1.238-.074.41-.155.82-.258 1.223a18.352 18.352 0 01-.758 2.387 16.554 16.554 0 01-2.51 4.343 14.644 14.644 0 01-3.81 3.325c-.73.439-1.494.82-2.282 1.135-.787.315-1.604.57-2.435.776l-.17-.74c.802-.16 1.59-.38 2.362-.659a14.95 14.95 0 002.237-1.01 14.231 14.231 0 003.805-3.076 16.41 16.41 0 002.626-4.174 18.39 18.39 0 001.141-3.545c.08-.395.154-.805.206-1.223zm-69.131 0c.045.41.118.82.207 1.23a18.392 18.392 0 001.14 3.544 16.207 16.207 0 002.627 4.175 14.23 14.23 0 003.804 3.076 15.36 15.36 0 002.237 1.01c.773.279 1.56.491 2.362.66l-.17.74a19.184 19.184 0 01-2.435-.777 16.134 16.134 0 01-2.28-1.135 14.642 14.642 0 01-3.812-3.325 16.55 16.55 0 01-2.51-4.342 18.007 18.007 0 01-.757-2.388 22.535 22.535 0 01-.258-1.223 10.27 10.27 0 01-.155-1.245z" fill="#FF2C30"/><path d="M45.732 44.87l-1.847-1.81.515 2.527c0 .007.228 1.135.265 2.497.044 1.692-.213 2.98-.743 3.72a1.69 1.69 0 01-1.236.733 5.646 5.646 0 01-.582.037c-.713 0-1.214-.198-1.523-.601-.36-.469-.522-1.252-.493-2.329 0-.066.008-.139.008-.212.014-.315.051-.652.095-1.01.052-.367.11-.748.184-1.129.008-.021.008-.05.015-.073.147-.74.324-1.494.515-2.233.03-.103.051-.205.081-.308.118-.461.243-.908.36-1.347.074-.271.148-.528.214-.784.199-.725.463-1.487.743-2.285.28-.79.567-1.611.832-2.504.051-.169.095-.345.147-.513.007-.022.007-.044.015-.059l.007-.022v-.007c.257-.96.47-2 .596-3.149.015-.132.03-.27.037-.41.051-.586.08-1.201.08-1.853 0-3.09-.684-6.437-2.082-10.157-.022-.066-.051-.132-.073-.205a48.222 48.222 0 00-.663-1.648c-.007-.007-.007-.022-.014-.03a59.088 59.088 0 00-.964-2.145l-.14-.285a.353.353 0 01-.022-.052.217.217 0 00-.03-.058c-.588-1.209-1.567-3.23-1.802-5.23-.265-2.262.507-3.83 2.362-4.796.463-.242.927-.366 1.376-.366 1.376 0 2.553 1.12 3.186 2.175.927 1.53 1.994 1.882 2.112 1.919l.97.293c.523.395 1.097.593 1.708.593h.007c.199 0 .582-.066.89-.483.692-.938.744-3.435.111-5.456C49.934 2.57 46.262.71 46.107.63L44.85 0l.133 1.406.073.776a14.288 14.288 0 00-3.627-.234 8.6 8.6 0 00-.847.088 4.967 4.967 0 00-.456.08 9.944 9.944 0 00-3.385 1.311.883.883 0 00-.11.074c-.052.036-.103.065-.155.102-1.56 1.047-2.87 2.636-3.45 4.907-.221.864-.325 1.845-.31 2.914 0 .235.015.476.03.718.03.44.073.886.132 1.347.096.667.228 1.34.398 2.022a22.664 22.664 0 001.295 3.749c.176.396.492 1.267.846 2.424.059.19.434 1.472.508 1.728.14.506.28 1.04.412 1.59.102.41.206.856.309 1.318.08.38.161.769.242 1.179.067.359.14.725.2 1.098.036.213.065.425.102.637.125.835.228 1.692.287 2.534a22.819 22.819 0 01.044 1.055c0 .095.008.19.008.285 0 .213 0 .425-.008.63-.044 1.458-.397 3.156-.78 4.614-.066.241-.132.476-.191.703-.243.85-.478 1.574-.64 2.065-.037.11-.066.205-.096.286-.066.19-.103.315-.132.395-.06.205-.118.403-.17.6l-.066.257c-.066.242-.125.49-.184.725-.33 1.399-.53 2.71-.596 3.925-.014.234-.022.461-.022.688v.33c0 .168.008.344.015.513.007.146.015.3.03.439.11 1.31.411 2.49.897 3.523.154.33.331.644.53.944.073.11.147.22.22.322.126.169.258.337.39.491a7.663 7.663 0 002.715 1.992c.192.088.39.161.59.234l.397.132c.699.205 1.42.33 2.112.352h.169c.338 0 .662-.03.971-.088a4.472 4.472 0 001.023-.315c.883-.38 1.633-1.025 2.207-1.897a6.786 6.786 0 00.788-1.692c.39-1.244.47-2.658.235-4.042-.316-1.728-1.089-3.266-2.2-4.365zm-4.68-3.37a3.669 3.669 0 00-.235-.483 3.905 3.905 0 00-.14-.234c.044-.037.096-.073.14-.117.265-.22.515-.454.758-.703-.184.535-.368 1.047-.523 1.538zm.721-2.101c0 .007-.007.007 0 0a9.41 9.41 0 01-1.148 1.025c-.044.03-.08.059-.125.088a9.158 9.158 0 00-.397-.535c-.258-.329-.523-.651-.773-.98a10.067 10.067 0 01-.566-.814c.294-.132.588-.278.875-.424a12.674 12.674 0 002.561-1.78c.007.007.015.007.022.015.162.117.317.249.464.388a30.857 30.857 0 01-.913 3.017zm-3.716-3.369a17.04 17.04 0 00.25-2.292v-.161c.545.447 1.141.813 1.744 1.142.368.206.744.403 1.112.608.257.147.515.293.765.462a12.076 12.076 0 01-2.502 1.552c-.302.14-.603.271-.912.396a5.097 5.097 0 01-.324-.843 4.305 4.305 0 01-.133-.864zm.067 1.846c-.06.022-.126.044-.184.066-.103.036-.214.073-.317.11.066-.264.133-.542.192-.813a5.1 5.1 0 00.309.637zm-.236-9.264c.066-.066.14-.125.206-.19.008.007.015.014.03.014.426.25.868.454 1.317.637.449.183.897.352 1.339.535.375.154.743.315 1.096.505-.147.147-.294.293-.448.432-.567.505-1.193.945-1.847 1.304a6.94 6.94 0 01-1.016.454c-.088.03-.17.058-.258.08a34.322 34.322 0 00-.419-3.771zm4.827 7.63a4.792 4.792 0 00-.397-.373l.022-.022c.199-.19.39-.38.574-.586a12.9 12.9 0 01-.199.982zm.287-1.457a11.66 11.66 0 01-.927.887 9.986 9.986 0 00-.787-.542c-.353-.227-.714-.447-1.067-.674-.685-.44-1.34-.908-1.884-1.48a4.08 4.08 0 00.42-.153 7.686 7.686 0 001.059-.564c.67-.425 1.28-.923 1.832-1.487.162-.168.317-.344.464-.52.39.235.75.52 1.045.864.03.037.059.066.08.103a20.02 20.02 0 01-.235 3.566zm.228-3.69c-.007-.008-.007-.015-.014-.022a4.373 4.373 0 00-1.009-.938 3.05 3.05 0 00.192-.256 5.8 5.8 0 00.596-1.01.45.45 0 00.037-.089c.11.813.169 1.582.198 2.314zm-.243-2.593c-.044.095-.088.198-.14.293a5.416 5.416 0 01-.64.937 7.775 7.775 0 01-.22.257 9.606 9.606 0 00-1.119-.594c-.434-.205-.875-.395-1.302-.6-.412-.198-.81-.41-1.185-.652.103-.102.206-.205.302-.315a13.561 13.561 0 001.89-2.548c.075-.132.148-.264.222-.403.316.125.618.271.897.461.295.198.567.432.802.696.221.864.383 1.684.493 2.468zm-.537-2.695a4.294 4.294 0 00-.662-.6 5.2 5.2 0 00-.898-.52c.14-.271.265-.55.383-.828.118-.293.228-.586.324-.886.346.989.625 1.94.853 2.834zm-2.082-6.02a7.501 7.501 0 01-1.398-.102 6.544 6.544 0 00.75-1.348c.228.498.442.982.648 1.45zm-1.847-4.02c-.052.007-.11.007-.162.007-.17 0-.331-.007-.5-.03a6.478 6.478 0 01-.979-.211c-.015-.008-.03-.008-.044-.015.059-.059.125-.125.184-.19l.051-.06.052-.058.103-.124.096-.125.044-.066.044-.066c.176-.263.338-.534.463-.82.2.623.42 1.216.648 1.758zm-.64-7.001c-.295-.271-.515-.623-.685-.974a5.133 5.133 0 01-.397-1.304c-.015-.087-.03-.168-.037-.256.118 0 .243.007.36.022.251.022.501.066.751.117.25.059.493.125.736.205.287.095.574.213.854.337a4.68 4.68 0 00-1.582 1.853zm-1.14-3.632c.029-.3.08-.6.169-.887a8.453 8.453 0 011.5-.798c.045 0 .082.008.126.008.213.022.42.065.625.117a4 4 0 01.567.197 7.77 7.77 0 00-.044 1.333c.022.271.051.55.132.813a3.355 3.355 0 01-.052-.813c.008-.27.037-.542.081-.813.023-.146.052-.285.081-.432.339.176.64.41.898.71l.052-.036A2.79 2.79 0 0040 3.559c.059-.227.125-.447.206-.659a9.43 9.43 0 011.288-.168c.301-.015.596-.022.868-.022 2.288 0 3.598.534 3.598.534l-.176-1.911s3.517 1.75 4.444 4.709c.736 2.343.368 4.914-.25 4.92h-.008c-1.155 0-1.89-1.01-2.391-1.845a.145.145 0 00-.125-.073c-.088 0-.184.08-.147.198.176.63.22.871.22.871s-.868-.263-1.67-1.574c-.75-1.238-2.141-2.556-3.863-2.556-.552 0-1.14.14-1.744.454a6.421 6.421 0 00-.706.425 7.254 7.254 0 00-.854-.447 6.62 6.62 0 00-1.508-.483 4.438 4.438 0 00-.434-.066c-.03-.242-.03-.49-.008-.732zm-.472-.418c-.007.132-.007.271-.007.403.007.242.03.476.066.718a3.08 3.08 0 00-.368 0c-.066 0-.132.007-.206.014a1.04 1.04 0 00-.206.022 5.08 5.08 0 00-.463.073 7.882 7.882 0 011.184-1.23zm-1.692 2.007a4.094 4.094 0 011.06-.396c.058-.014.117-.029.183-.036.06-.008.126-.022.184-.03.126-.014.243-.029.368-.029h.037c.022.11.052.212.081.322.133.462.316.908.567 1.311.125.205.264.396.426.571.118.132.25.25.39.352a5.036 5.036 0 00-.404 1.34c-.155.132-.31.264-.471.388a5.913 5.913 0 01-.574.374c-.037.022-.074.044-.11.058a6.202 6.202 0 01-1.008-.784 4.444 4.444 0 01-.501-.556 2.791 2.791 0 01-.213-.3 1.618 1.618 0 01-.096-.154c-.037-.051-.059-.102-.088-.161a3.869 3.869 0 01-.39-1.04c.154-.454.338-.857.559-1.23zm2.826 4.804a8.767 8.767 0 01-.869-.44s.008 0 .008-.007c.19-.14.375-.293.544-.447.125-.11.236-.227.353-.351a7.66 7.66 0 00-.036 1.245zm-3.658-2.702a4.507 4.507 0 00.361.57c.044.052.08.11.125.162.088.102.177.205.265.3.184.198.383.374.596.535.213.16.427.315.655.446l.353.198a4.998 4.998 0 01-.294.125c-.42.16-.854.234-1.28.212a2.548 2.548 0 01-.913-.22c-.044-.022-.081-.044-.125-.058.015-.828.096-1.59.257-2.27zm-.132 4.29a14.74 14.74 0 01-.11-1.376c.088.03.184.044.272.066.25.051.508.059.758.044.5-.03.978-.176 1.405-.396.155-.08.31-.168.456-.263.015.007.037.014.052.03.316.146.633.27.964.373.051.798.22 1.61.456 2.372-.17.279-.36.535-.574.777l-.051.058-.052.059-.11.11-.11.102-.06.052-.058.05a5.47 5.47 0 01-.324.257 6.939 6.939 0 01-1.442-.71c-.545-.36-1.023-.82-1.347-1.362a7.358 7.358 0 00-.125-.242zm.662 3.062h-.014a20.303 20.303 0 01-.494-2.058c.096.095.192.183.287.271.265.227.56.425.861.593.45.25.92.44 1.398.579a4.26 4.26 0 01-1.037.469 4.033 4.033 0 01-.861.153c-.044-.014-.096-.007-.14-.007zm.17.586c.014 0 .029-.007.044-.007a4.512 4.512 0 00.957-.293 4.32 4.32 0 001.11-.689c.052-.044.096-.08.14-.124.052.014.096.022.147.036.331.074.67.125 1.008.14.17.007.339.007.508-.008a10.3 10.3 0 00.17-.022c.367.864.735 1.597.97 2.095.045.102.096.197.14.3-.059.11-.117.227-.184.337-.235.395-.5.769-.809 1.113a9.58 9.58 0 01-1.869-.535c-.714-.293-1.383-.688-1.935-1.193a43.95 43.95 0 01-.398-1.15zm.83 2.168c-.036-.074-.065-.154-.102-.228.103.06.206.125.309.176.383.213.787.381 1.192.52a9.824 9.824 0 001.825.418c-.044.05-.096.095-.14.146a6.92 6.92 0 01-2.2 1.45c-.375-1.194-.7-2.08-.883-2.482zm1.038 3.01c.015-.008.023-.015.037-.015.287-.147.56-.315.824-.49a7.216 7.216 0 001.671-1.583c.117.015.235.022.353.03.397.021.802.021 1.2-.008.419.982.787 1.919 1.096 2.812a9.746 9.746 0 01-.442 1.077c-.132.278-.272.55-.427.813-.059-.022-.125-.052-.184-.074-.47-.175-.964-.307-1.442-.439a21.484 21.484 0 01-1.427-.41 7.073 7.073 0 01-.876-.359c-.125-.476-.258-.93-.383-1.355zm.53 1.889c.206.073.412.139.618.198.486.139.979.234 1.472.336.486.103.971.205 1.435.36a.906.906 0 01.147.05c-.066.118-.14.227-.213.345a13.03 13.03 0 01-2.348 2.731c-.088-.066-.169-.139-.25-.205a46.816 46.816 0 00-.86-3.815zm-.412 18.176c.081-.27.56-1.604 1.016-3.28.323-.118.647-.25.97-.382.207.3.435.586.67.857.42.484.869.938 1.251 1.428-.743.513-1.56.916-2.413 1.23a17.01 17.01 0 01-1.464.477l-.14.044.11-.374zm.199.857c.493-.169.993-.352 1.471-.564.861-.373 1.693-.828 2.436-1.406.052.066.096.14.14.205.118.183.228.373.316.578-.066.22-.132.447-.191.66-.25.93-.544 1.97-.81 3.039-.323.19-.662.359-1.008.52-.132.058-.272.124-.412.183a9.442 9.442 0 01-1.133-1.099c-.515-.593-.942-1.26-1.214-1.977l.405-.14zm3.282 2.863c-.089.374-.17.747-.25 1.113-.133-.08-.265-.168-.398-.249-.132-.088-.257-.183-.39-.278a13.778 13.778 0 001.038-.586zm-3.908-2.145a7.65 7.65 0 001.207 1.603c.353.36.736.689 1.133.989-.588.242-1.184.469-1.78.718-.383.16-.766.337-1.14.542.058-1.143.242-2.417.58-3.852zm-.588 4.525c.073-.058.154-.11.235-.16.346-.228.729-.433 1.119-.623.625-.308 1.28-.593 1.913-.916.162.11.33.213.493.315.147.088.301.169.456.25-.235 1.17-.383 2.32-.331 3.31a4.991 4.991 0 01-.758.527c-.051.036-.11.058-.17.088-.007 0-.007.007-.014.007-.007-.008-.022-.008-.03-.015a6.5 6.5 0 01-1.442-.886 7.68 7.68 0 01-.632-.564c-.103-.095-.2-.205-.295-.307-.088-.103-.184-.213-.272-.323a11.149 11.149 0 01-.272-.351v-.352zm3.995 3.076a1.693 1.693 0 01-.272-.037 2.639 2.639 0 01-.397-.102c.206-.146.397-.308.574-.476.022.22.051.425.095.615zm-3.495.33a9.885 9.885 0 01-.449-2.256c.066.059.125.125.192.183.11.095.22.198.33.293.229.19.464.366.707.527.456.3.95.557 1.464.74l-.132.059-.177.073-.176.066a1.337 1.337 0 01-.184.058c-.125.037-.243.073-.368.095a6.126 6.126 0 01-1.207.162zm1.744 2.885a2.858 2.858 0 01-.213-.227l.125.022c.257.044.515.073.78.08a2.51 2.51 0 01-.405.096 4.32 4.32 0 01-.287.029zm9.536-2.68a2.416 2.416 0 00-.485-.572 1.64 1.64 0 00-.56-.322 1.217 1.217 0 00-.625-.044c.206-.014.412.03.596.117.184.088.339.213.478.36.25.27.412.607.515.959-.25 1.347-.868 2.555-1.817 3.332a2.5 2.5 0 00.037-.52 2.333 2.333 0 00-.184-.835 2.243 2.243 0 00-.45-.71 2.2 2.2 0 00-.308-.279 1.117 1.117 0 00-.375-.183c.132.044.242.125.345.213.103.088.192.19.273.3.154.22.28.461.36.718.074.256.11.52.096.776a2.144 2.144 0 01-.184.747c-.015.029-.022.051-.037.08a4.108 4.108 0 01-2.193.608h-.14a7.054 7.054 0 01-1.044-.11 2.3 2.3 0 00.574-.783c.147-.33.22-.689.22-1.04 0-.352-.058-.696-.184-1.018.067.337.074.674.023 1.003-.052.33-.17.637-.346.9a1.959 1.959 0 01-.67.63 1.797 1.797 0 01-.324.14 7.198 7.198 0 01-2.693-1.377 2.805 2.805 0 00.861-.483c.037-.03.074-.059.11-.096.03-.007.067-.007.096-.014a4.86 4.86 0 001.523-.476c-.456.19-.949.285-1.442.315.147-.154.272-.315.39-.49.184-.28.331-.58.427-.894a3.3 3.3 0 01-.552.798 3.11 3.11 0 01-.728.593 4.75 4.75 0 01-1.347-.242c-.059-.021-.125-.036-.184-.058l-.177-.066-.066-.03a7.183 7.183 0 01-.905-1.589 7.432 7.432 0 001.126-.278c.132-.044.257-.095.383-.146.066-.03.125-.059.19-.08.067-.03.126-.06.185-.089l.184-.095.176-.102.177-.11c.022-.015.051-.03.073-.044.17.044.339.073.516.088.095.007.198.014.294.007.28 1.274 1.06 2.116 2.678 2.116.214 0 .442-.014.677-.044 3.9-.483 2.392-7.88 2.392-7.88 1.663 1.62 2.31 4.102 2.045 6.299z" fill="#0FF"/><path d="M48.425 7.037c.118.323.272.535.405.674.176.183.176.183.294.007.125-.19.176-.68-.037-.893-.118-.125-.162-.168-.28-.293-.169-.176-.478-.425-.426-.19.03.11-.008.556.044.695zm-6.342 25.324a.623.623 0 100 1.245.623.623 0 100-1.245zm-1.303 5.376a.623.623 0 100 1.245.623.623 0 00.625-.623.628.628 0 00-.625-.622zm-1.861 6.473a.558.558 0 100-1.113.558.558 0 100 1.113zm2.589-16.015a.675.675 0 00.677-.674.675.675 0 00-.677-.674.675.675 0 00-.677.674c0 .372.303.674.677.674zm-1.847-5.537a.674.674 0 100-1.348c-.375 0-.677.3-.677.674a.669.669 0 00.677.674zm-2.199-4.701a.558.558 0 100-1.114.558.558 0 100 1.114zm-1.201-4.277a.477.477 0 10-.478-.476c0 .263.214.476.478.476z" fill="#0FF"/><path d="M46.563 27.858c-.08-.71-.044-1.436.045-2.146.095-.718.265-1.42.485-2.116a12.486 12.486 0 012.083-3.838 14.639 14.639 0 013.23-2.973 19.25 19.25 0 013.892-2.021 26.271 26.271 0 014.194-1.216c1.436-.278 2.878-.432 4.313-.52a56.457 56.457 0 014.312-.095c1.434.03 2.87.073 4.297.212-1.428.103-2.855.19-4.283.308-1.42.117-2.84.242-4.253.403-1.405.168-2.818.359-4.18.666-.684.154-1.368.33-2.038.535-.67.197-1.331.425-1.986.68a20.807 20.807 0 00-4.158 2.154l-.213.146-.206.154c-.14.103-.272.213-.412.315-.133.11-.272.22-.405.33-.522.446-1.03.93-1.486 1.45a13.182 13.182 0 00-2.237 3.493 11.557 11.557 0 00-.677 1.992 10.02 10.02 0 00-.214 1.04 8.136 8.136 0 00-.102 1.047z" fill="#9A39FF"/><path d="M63.929 16.191h.022a5.259 5.259 0 00-1.236-.615 5.6 5.6 0 011.214.615z" fill="#FF0"/><path d="M52.258 23.266a8.736 8.736 0 002.737 4.387c.442.38.928.717 1.435 1.01a8.886 8.886 0 003.319 1.077 8.778 8.778 0 003.466-.3 8.893 8.893 0 003.06-1.612 8.696 8.696 0 003.165-5.88 8.676 8.676 0 00-1.693-6.071h-.037a8.279 8.279 0 011.303 2.76 8.234 8.234 0 01-.927 6.335 8.325 8.325 0 01-5.063 3.764 8.458 8.458 0 01-3.179.198 8.257 8.257 0 01-3.009-1.003 8.202 8.202 0 01-2.413-2.05 8.374 8.374 0 01-1.472-2.813 8.272 8.272 0 01-.324-3.002c-.22.16-.434.322-.633.468-.059.916.03 1.846.265 2.732z" fill="#FFB000"/><path d="M55.216 20.886a5.555 5.555 0 002.708 4.724 5.674 5.674 0 003.304.806 5.575 5.575 0 002.193-.609 5.533 5.533 0 001.75-1.406 5.661 5.661 0 001.046-1.94 5.577 5.577 0 00-1.692-5.837 6.413 6.413 0 00-.567-.432h-.022c.198.139.39.293.574.454.507.476.92 1.054 1.192 1.684.28.63.419 1.318.419 1.992 0 .681-.14 1.347-.39 1.963a4.963 4.963 0 01-1.096 1.625 5.219 5.219 0 01-1.597 1.084 5.098 5.098 0 01-3.723.132 4.572 4.572 0 01-.861-.396 5.672 5.672 0 01-.773-.549 5.14 5.14 0 01-1.177-1.486 5.118 5.118 0 01-.552-1.846 5.06 5.06 0 01.773-3.237 14.52 14.52 0 00-.685.33 5.58 5.58 0 00-.824 2.944z" fill="#FF0"/><path d="M46.563 27.858a4.12 4.12 0 01.081-.667c.045-.22.089-.44.155-.659.118-.44.28-.864.456-1.281.368-.835.839-1.626 1.383-2.366 1.097-1.48 2.48-2.731 3.996-3.779.758-.52 1.553-.988 2.37-1.413.404-.212.816-.41 1.236-.6.206-.096.42-.183.632-.271a14.177 14.177 0 011.995-.689c.448-.117.905-.22 1.36-.307a28.956 28.956 0 012.723-.374c.457-.044.905-.08 1.354-.11.45-.029.905-.051 1.354-.073l1.347-.059 1.339-.05c.442-.015.89-.045 1.332-.067.441-.022.883-.051 1.317-.088.876-.08 1.744-.175 2.583-.351a14.286 14.286 0 001.236-.322 8.947 8.947 0 001.17-.484 9.103 9.103 0 002.112-1.435 10.936 10.936 0 002.37-3.105c.205-.396.39-.798.536-1.223-.147.886-.456 1.743-.853 2.563a10.03 10.03 0 01-1.546 2.278 9.68 9.68 0 01-1.008.966c-.36.293-.75.564-1.155.806a8.923 8.923 0 01-1.273.63c-.441.175-.89.322-1.34.439-.904.234-1.81.388-2.714.498-.905.117-1.81.19-2.708.249l-1.347.088-1.339.08c-.441.03-.89.059-1.332.096-.441.036-.883.073-1.317.117-.875.088-1.744.205-2.597.359a17.31 17.31 0 00-2.487.644c-.2.066-.39.147-.596.227a14.9 14.9 0 00-.604.25 21.81 21.81 0 00-1.192.534c-.787.373-1.56.776-2.303 1.23-1.486.9-2.87 1.963-4.055 3.244a14.162 14.162 0 00-1.589 2.08c-.228.373-.441.762-.633 1.157a8.622 8.622 0 00-.449 1.238z" fill="#005EFF"/><path d="M65.886 20.747c.804 0 1.457-.65 1.457-1.45 0-.8-.653-1.45-1.457-1.45-.805 0-1.457.65-1.457 1.45 0 .8.652 1.45 1.457 1.45z" fill="#fff"/><path d="M34.437 27.858a8.522 8.522 0 00-.11-1.062 12.417 12.417 0 00-.214-1.04 13.515 13.515 0 00-.677-1.992 13.176 13.176 0 00-2.237-3.493 14.59 14.59 0 00-1.89-1.78c-.14-.102-.273-.212-.413-.315l-.206-.153-.213-.147a5.509 5.509 0 00-.434-.286 19.876 19.876 0 00-3.724-1.867 31.767 31.767 0 00-1.986-.681c-.67-.205-1.354-.38-2.039-.535-1.361-.307-2.767-.498-4.18-.666a137.022 137.022 0 00-4.252-.403c-1.42-.117-2.848-.205-4.283-.307 1.428-.14 2.862-.184 4.297-.213 1.435-.014 2.87.008 4.312.095 1.435.088 2.877.235 4.312.52.714.154 1.42.315 2.12.52.698.205 1.39.432 2.075.696a19.236 19.236 0 013.892 2.021 14.639 14.639 0 013.23 2.974A12.488 12.488 0 0133.9 23.58c.22.688.397 1.399.485 2.116.096.725.14 1.45.052 2.16z" fill="#9A39FF"/><path d="M17.336 16.016c.302-.183.618-.33.949-.447a5.564 5.564 0 00-1.236.615h.022c.08-.051.17-.11.265-.168z" fill="#FF0"/><path d="M11.567 21.947a8.711 8.711 0 003.164 5.881 8.895 8.895 0 003.061 1.611 8.79 8.79 0 003.466.3 8.842 8.842 0 003.319-1.076 8.872 8.872 0 002.641-2.285 8.735 8.735 0 001.53-3.112 8.731 8.731 0 00.266-2.725 15.784 15.784 0 00-.633-.468 8.118 8.118 0 01-.324 3.002 8.312 8.312 0 01-3.885 4.863c-.927.52-1.95.864-3.01 1.003a8.31 8.31 0 01-3.178-.198 8.354 8.354 0 01-2.892-1.376 8.232 8.232 0 01-2.17-2.388 8.366 8.366 0 01-1.105-3.06 8.33 8.33 0 01.177-3.274 8.212 8.212 0 011.302-2.761h-.036a8.848 8.848 0 00-1.376 2.731 8.613 8.613 0 00-.317 3.332z" fill="#FFB000"/><path d="M15.173 18.272a5.62 5.62 0 00-.603 2.036c-.074.717 0 1.45.213 2.153a5.53 5.53 0 001.045 1.94 5.634 5.634 0 001.751 1.406 5.699 5.699 0 002.193.608 5.674 5.674 0 003.304-.805 6.02 6.02 0 00.92-.689 5.74 5.74 0 001.317-1.845 5.655 5.655 0 00.47-2.19 5.515 5.515 0 00-.816-2.936 11.757 11.757 0 00-.684-.33 5.044 5.044 0 01.772 3.237 5.212 5.212 0 01-.552 1.845 5.046 5.046 0 01-1.95 2.036 4.622 4.622 0 01-.86.396 5.047 5.047 0 01-1.87.285 5.097 5.097 0 01-1.854-.417 5.22 5.22 0 01-1.597-1.084 5.038 5.038 0 01-1.096-1.626 5.04 5.04 0 011.221-5.639 4.4 4.4 0 01.575-.454h-.023c-.198.132-.39.278-.566.432a5.387 5.387 0 00-1.31 1.64z" fill="#FF0"/><path d="M34.437 27.858c-.11-.432-.28-.85-.464-1.245a9.796 9.796 0 00-.633-1.157 13.66 13.66 0 00-1.589-2.08c-1.185-1.282-2.568-2.344-4.054-3.244a24.743 24.743 0 00-2.304-1.23c-.39-.191-.794-.36-1.192-.535-.198-.088-.404-.169-.603-.25-.206-.08-.397-.153-.596-.226a16.514 16.514 0 00-2.487-.645 33.567 33.567 0 00-2.598-.358c-.434-.045-.875-.081-1.317-.118a76.11 76.11 0 00-1.332-.095l-1.339-.08-1.346-.088a49.003 49.003 0 01-2.708-.25 20.543 20.543 0 01-2.715-.497 11.433 11.433 0 01-1.34-.44 8.924 8.924 0 01-1.273-.63 10.498 10.498 0 01-1.155-.805 9.67 9.67 0 01-1.008-.967A10.123 10.123 0 01.84 10.641C.456 9.835.147 8.97 0 8.085c.147.425.331.827.537 1.223.206.395.427.776.67 1.135a10.69 10.69 0 001.7 1.97 9.26 9.26 0 003.281 1.919 14.333 14.333 0 001.237.322c.838.176 1.707.278 2.582.351.434.037.876.066 1.317.088l1.332.066 1.34.051 1.346.06c.449.021.898.043 1.354.072.449.03.905.066 1.354.11a28.88 28.88 0 012.722.374c.457.088.905.19 1.362.307a12.9 12.9 0 011.339.425c.22.08.441.168.655.264.213.088.42.183.633.27.419.19.831.389 1.236.601.817.417 1.604.893 2.37 1.413 1.515 1.04 2.898 2.3 3.995 3.78.544.739 1.015 1.53 1.383 2.365a9.166 9.166 0 01.61 1.94c.045.22.074.447.082.667z" fill="#005EFF"/><path d="M15.114 20.747c.805 0 1.457-.65 1.457-1.45 0-.8-.652-1.45-1.457-1.45s-1.457.65-1.457 1.45c0 .8.652 1.45 1.457 1.45z" fill="#fff"/><path d="M46.6 29.535c-.588 8.51 3.253 16.506 19.691 28.238l.03.022.036-.176.471-2.387c.015-.088.95-5.06-.33-10.985l.014-.007c-.007-.015-.015-.022-.022-.037-.846-3.933-3.105-9.637-7.403-12.691-6.872-4.877-12.487-1.977-12.487-1.977zm1.774 5.368a32.85 32.85 0 01-.552-4.453s.574-.11 2.722 1.289c.287.183.906.718 1.148.952.089.08.17.168.258.256 0 .008-.008.008-.008.015-.044.08-.095.161-.14.234l-.066.117-.058.118c-.044.08-.074.16-.11.241-.148.323-.266.66-.376.989a12.908 12.908 0 00-.449 2.036c-.022.168-.051.344-.066.512-.022.169-.037.345-.052.513-.022.344-.044.688-.036 1.033 0 .688.051 1.376.184 2.05a11.15 11.15 0 01-.03-2.043c.052-.681.155-1.348.31-2.007.161-.659.36-1.303.617-1.918.133-.308.273-.608.434-.894.045-.073.081-.146.126-.212l.066-.103.066-.102c.022-.037.044-.066.066-.103.479.491.942.996 1.398 1.509.28.307.596.674.861.988 0 .008-.059.074-.11.147a3.33 3.33 0 00-.317.454c-.051.095-.11.198-.147.271-.184.366-.33.74-.456 1.128a9.565 9.565 0 00-.42 2.35 25.051 25.051 0 00-.036 2.351c.022.667.066 1.34.154 2-2.803-3.574-4.43-6.877-4.981-9.718zm7.16 12.28a48.025 48.025 0 01-2.15-2.526 18.632 18.632 0 01-.029-2.028c.03-.777.089-1.553.184-2.322.11-.762.302-1.508.589-2.212a7.54 7.54 0 01.508-1.003 4.2 4.2 0 01.316-.454c.052-.066.103-.132.162-.197a50.85 50.85 0 012.104 2.731l-.036.051c-.015.022-.022.03-.03.044l-.022.037-.044.073c-.03.051-.059.095-.081.147a5.268 5.268 0 00-.39.879 7.67 7.67 0 00-.316 1.215 9.927 9.927 0 00-.118 2.468c.059.813.147 1.618.272 2.417.118.717.258 1.435.456 2.13-.485-.49-.941-.973-1.376-1.45zm1.383 1.458a21.538 21.538 0 01-.331-2.175 24.03 24.03 0 01-.125-2.41 9.63 9.63 0 01.301-2.35 8.18 8.18 0 01.383-1.106c.08-.176.162-.351.257-.513.044-.08.096-.16.148-.241.022-.037.051-.073.073-.103a55.898 55.898 0 012.31 3.574c-.022.044-.05.08-.073.124a4.952 4.952 0 00-.346.754c-.125.345-.22.697-.287 1.048a8.655 8.655 0 00-.132 2.131c.037.703.11 1.406.213 2.102.089.6.199 1.208.353 1.794a83.271 83.271 0 01-2.744-2.629zm2.774 2.651c-.125-.6-.199-1.216-.265-1.824a19.97 19.97 0 01-.096-2.094 8.24 8.24 0 01.273-2.043c.088-.33.198-.652.338-.96.066-.153.147-.307.228-.446l.066-.11c.869 1.487 2.428 4.62 2.428 4.62s-.213.213-.242.235c-.044.059-.089.11-.133.169a2.624 2.624 0 00-.213.366 2.837 2.837 0 00-.265 1.208c0 .14.007.271.015.41.03.271.066.535.125.798.11.528.28 1.033.493 1.524a8.144 8.144 0 00.574 1.062 139.41 139.41 0 01-3.326-2.915zm3.377 2.944a4.398 4.398 0 01-.22-.41 6.36 6.36 0 01-.317-.725 7.292 7.292 0 01-.493-2.307c-.007-.132 0-.256.007-.388.008-.125.03-.256.052-.38.051-.25.132-.492.258-.711.058-.11.125-.213.206-.308.036-.051.08-.095.117-.139l.067-.066a.322.322 0 01.058-.051l.008-.008.022-.022c.007.015.014.023.014.037a64.505 64.505 0 011.641 3.808c.25.645.493 1.296.714 1.948.22.637.434 1.282.618 1.934-.066-.037-1.184-.901-2.752-2.212zm2.774 2.16a42.11 42.11 0 00-.559-1.89 60.594 60.594 0 00-.677-1.962c-.478-1.303-1-2.585-1.567-3.852.037 0 .066.008.103.008a2.457 2.457 0 011.052.41c.103.073.206.146.302.234.095.088.191.176.28.271.176.19.338.395.492.615.31.425.567.886.78 1.37.11.241.199.49.287.74 0 .006.008.021.008.028-.11 2.249-.42 3.684-.5 4.028zm.5-4.16a7.889 7.889 0 00-.95-2.11 7.018 7.018 0 00-.47-.65 9.386 9.386 0 00-.272-.308 3.641 3.641 0 00-.316-.27 2.72 2.72 0 00-1.354-.55c-.03 0-.059-.007-.088-.007a62.113 62.113 0 00-2.362-4.687h.014c.089.014.177.03.265.051.089.022.177.051.265.073l.265.088c.353.132.692.293 1.023.476.331.183.647.396.956.615a7.78 7.78 0 012.244 2.563c.185.337.347.682.486 1.048.133.344.243.703.31 1.062.029.959.014 1.83-.015 2.607zm-.352-6.7a36.65 36.65 0 01.36 4.086 5.885 5.885 0 00-.257-1.062 8.037 8.037 0 00-.435-1.076 8.008 8.008 0 00-1.31-1.933 8.112 8.112 0 00-.853-.813 10.849 10.849 0 00-.95-.696 7.555 7.555 0 00-1.044-.571c-.088-.044-.184-.073-.28-.117a2.197 2.197 0 00-.287-.096c-.368-.08-.699-.095-.699-.095s-.72-1.237-1.081-1.823a48.803 48.803 0 00-1.067-1.655 6.39 6.39 0 01.927.095c.427.073.846.19 1.258.337.412.146.81.33 1.2.534.39.213.765.447 1.125.703.721.52 1.376 1.128 1.965 1.802.294.337.574.688.832 1.054.176.257.345.513.507.784.03.169.06.359.089.542zm-.103-.645a10.435 10.435 0 00-.413-.74 11.572 11.572 0 00-.765-1.12 11.998 11.998 0 00-1.884-1.977 9.674 9.674 0 00-2.354-1.443 9.146 9.146 0 00-1.332-.439c-.596-.154-1.457-.227-1.457-.227l-.059-.066s-1.383-1.809-2.09-2.702c.067-.015.133-.03.192-.037a7.842 7.842 0 011.964-.051c.442.044.876.117 1.31.227.11.03.213.051.324.088l.162.044.162.051c.213.066.426.14.633.22.824.322 1.589.813 2.295 1.37.353.278.7.57 1.023.885.162.154.316.3.464.462a20.35 20.35 0 011.825 5.456zm-1.914-5.653c-.103-.117-.206-.234-.309-.344a15.09 15.09 0 00-.971-.967c-.338-.307-.692-.6-1.067-.864a8.457 8.457 0 00-1.2-.71 7.048 7.048 0 00-.647-.264l-.162-.059-.162-.058-.33-.11a10.479 10.479 0 00-1.362-.315 8.194 8.194 0 00-1.405-.102 7.209 7.209 0 00-1.074.094c-.06.008-.118.023-.185.037-.007 0-.022.008-.03.008a35.75 35.75 0 00-.838-1.004c-.331-.38-.662-.761-1.008-1.142l.206-.022c.206-.007.42-.015.633-.007.427.014.86.05 1.287.117.861.124 1.722.315 2.569.542.846.22 1.692.468 2.509.79.375.147.75.308 1.11.484a24.318 24.318 0 012.436 3.896zm-2.612-4.123c-.28-.154-.56-.3-.846-.44a20.133 20.133 0 00-2.48-.995 22.084 22.084 0 00-2.59-.689c-.441-.088-.89-.154-1.346-.19a7.203 7.203 0 00-.692-.03c-.118 0-.236.008-.353.015-.06 0-.236.03-.295.037 0 0-.765-.879-1.84-1.619-1.81-1.252-2.59-1.179-2.722-1.288.17.014 3.098-1.106 6.549.248 5.283 2.066 6.6 4.929 6.615 4.951zm-33.488-6.159c-4.062.542-6.498 2.688-8.484 4.921a1.46 1.46 0 00-.103.118c-7.77 8.883-3.922 22.658-4.666 23.917-.124.213.023-.022.023-.022C31.427 46.144 34.79 36.433 34.422 30.282c-.037-.615-2.473-1.868-6.55-1.326zm-7.587 5.302c5.997-6.459 11.87-4.233 12.112-4.277-.044.044-1.376-.314-5.474 3.442-.133.118-.98.308-1.156.352a1.71 1.71 0 01-.265.059c-.088.014-.176.029-.272.043-.36.044-.736.044-1.104 0-.044-.007-.095-.007-.14-.014l-.14-.022-.139-.022-.147-.022-.147-.022-.148-.015-.147-.014-.147-.008a6.051 6.051 0 00-1.207.022 3.72 3.72 0 00-1.155.323 2.147 2.147 0 00-.353.212c.007-.007.015-.022.03-.037zm-.228.279l.089-.066c.162-.11.33-.19.515-.257.36-.124.743-.175 1.118-.175.383 0 .758.044 1.133.11l.14.029.14.029.14.03.14.036.14.036.146.037.148.037a.866.866 0 01.147.03c.405.072.817.102 1.236.08.103-.008.206-.015.317-.03.073-.014.154-.022.228-.036-.324.351-2.149 2.841-2.502 3.075-.147.096-.258.235-.398.337-.28.213-.573.389-.89.52a2.737 2.737 0 01-.993.205 2.39 2.39 0 01-.508-.05c-.044-.008-.081-.023-.125-.03l-.14-.037c-.096-.022-.184-.044-.28-.058a3.217 3.217 0 00-1.155-.03 2.72 2.72 0 00-1.06.432 3.59 3.59 0 00-.617.535c.89-2.05 1.957-3.64 2.891-4.79zm-2.994 5.023c.25-.241.515-.461.809-.637a2.39 2.39 0 011-.33c.354-.036.707.015 1.053.11.088.022.17.052.257.074l.125.044c.045.014.096.029.14.044.192.058.39.095.589.11.397.029.802-.023 1.177-.14.14-.044.28-.095.42-.154-.464.74-1.847 3.479-2.627 3.875-.22.11-.449.227-.7.263-.25.044-.529.051-.809.051-.566 0-1.162-.029-1.744.096a2.419 2.419 0 00-.824.322c-.03.022-.066.044-.095.066.323-1.406.75-2.666 1.229-3.794zm-1.251 3.91a1.99 1.99 0 01.169-.094 2.15 2.15 0 01.802-.205c.56-.044 1.111.044 1.685.11.147.014.287.036.441.043.074.008.148.008.229.008.036 0 .08 0 .117-.008.037 0 .081 0 .118-.007a2.57 2.57 0 00.868-.249 50.35 50.35 0 00-.706 1.56s-.61 1.355-.64 1.399a1.53 1.53 0 01-.376.44 1.611 1.611 0 01-.507.27c-.184.059-.398.088-.611.117-.434.052-.883.088-1.317.235-.214.073-.42.175-.596.322a1.412 1.412 0 00-.228.242c-.015.014-.022.036-.037.05a25.66 25.66 0 01.589-4.232zm-.582 4.285c.022-.03.044-.051.066-.08.074-.081.162-.147.25-.206a1.71 1.71 0 01.59-.234c.419-.088.853-.073 1.294-.073.11 0 .221 0 .339-.008.118-.007.235-.022.353-.043a1.91 1.91 0 00.552-.22c-.191.52-.375 1.04-.56 1.567-.168.483-.492 1.582-1.037 2.131a.827.827 0 01-.294.183.65.65 0 01-.17.051l-.102.03-.103.036c-.265.095-.5.257-.685.447a2.044 2.044 0 00-.412.615 29.01 29.01 0 01-.08-4.196zm.273 8.37c-.067.052.08-1.471-.155-3.771-.015-.132-.022-.271-.037-.403.067-.095.133-.19.206-.278.089-.095.177-.19.28-.264a1.7 1.7 0 01.677-.322l.088-.015.096-.014c.073-.015.147-.03.213-.051a1.372 1.372 0 00.434-.25c-.603 1.78-1.2 3.56-1.773 5.346-.007.008-.022.015-.03.023zm.095-.073a477.824 477.824 0 011.994-5.419c.044.183.133.337.221.483.191.293.405.542.537.843a1.9 1.9 0 01.147.952c-.03.322-.117.637-.228.944a88.343 88.343 0 01-2.67 2.197zm2.664-2.197c.14-.293.25-.6.309-.93.03-.168.044-.344.03-.512a1.768 1.768 0 00-.104-.513c-.11-.337-.323-.622-.47-.908a1.604 1.604 0 01-.155-.432c-.125-.542.324-1.545.508-2.014.242-.63.493-1.26.75-1.89.088.25.199.484.331.703.324.52.744.938 1.067 1.4.162.234.295.475.375.746.081.264.11.55.089.835a3.332 3.332 0 01-.17.842c-.058.205-.14.41-.227.608a68.18 68.18 0 01-2.333 2.065zm2.384-2.087c.096-.183.184-.366.258-.556.102-.271.198-.557.235-.85a2.42 2.42 0 00-.03-.893 3.083 3.083 0 00-.345-.835c-.31-.513-.7-.96-.95-1.45a3.022 3.022 0 01-.28-.77c-.102-.505.398-1.61.398-1.61.28-.615.56-1.223.861-1.831.081-.154.155-.315.236-.469.022.33.08.667.184.982.11.344.272.659.47.952.2.292.427.556.655.805.229.25.471.49.685.747.213.256.404.527.522.842.118.308.162.645.14.974-.022.337-.11.667-.22.989a4.07 4.07 0 00.286-.981 2.421 2.421 0 00-.08-1.026c-.104-.336-.288-.637-.494-.915-.206-.278-.427-.535-.64-.798a6.038 6.038 0 01-.574-.813 3.658 3.658 0 01-.375-.894 3.74 3.74 0 01-.11-.952l.007-.241c0-.82 1.479-3.105 2.17-4.109.037-.029.067-.05.104-.08.007-.008.022-.015.029-.022-.007.124-.007.256-.007.38.022.491.14.982.338 1.421.096.22.213.432.339.638.029.05.066.102.095.146l.103.14.199.277c.265.374.537.74.802 1.106.265.374.515.74.721 1.143.103.197.184.402.25.615.066.212.103.432.11.659.023.447-.05.893-.161 1.325-1.81 2.08-3.981 4.182-5.931 5.954zm9.367-10.882l-.331.637c-.7 1.325-1.81 2.805-3.105 4.291.147-.424.265-.871.272-1.325a3.139 3.139 0 00-.059-.696 3.5 3.5 0 00-.206-.666 9.286 9.286 0 00-.64-1.23c-.236-.396-.478-.784-.706-1.172l-.346-.579c-.11-.19-.206-.38-.28-.578a3.393 3.393 0 01-.243-1.23c0-.418.089-.828.243-1.216.081-.19.177-.381.287-.557.052-.088.11-.176.177-.256.03-.044.838-1.15 1.361-1.648.213-.205.61-.615.934-.806-.014.037-.022.074-.036.11a2.26 2.26 0 00-.074.388 2.362 2.362 0 000 .396c.022.264.103.52.206.747.22.454.53.82.824 1.164.302.345.604.674.876 1.033.265.351.5.732.662 1.15.162.41.243.856.25 1.303 0 .227-.014.447-.044.674-.007.014-.015.044-.022.066zm.17-.747a3.805 3.805 0 00-.155-1.377 5.116 5.116 0 00-.596-1.267c-.25-.395-.537-.754-.802-1.12-.265-.36-.523-.725-.67-1.106a1.57 1.57 0 01-.007-1.128c.132-.366.169-.447.456-.761 2.325-2.63 4.599-2.71 4.599-2.71s.787 2.746-2.907 10.047c.037-.19.067-.38.081-.578z" fill="#12FF72"/></g><path d="M97 26h3.344v-4.554l2.288-2.046 5.434 6.6h4.554l-7.348-8.712 6.974-5.962h-4.906l-6.996 6.27v-6.27H97V26zm17.81 0h13.222v-2.816h-9.878v-3.432h8.69v-2.618h-8.69v-2.992h9.878v-2.816H114.81V26zm21.625 0h3.344v-5.808l6.71-8.866h-4.158l-4.158 5.896-4.246-5.896h-4.334l6.842 8.866V26zm12.275 0h9.218c1.76 0 2.772-.22 3.696-.814 1.1-.726 1.76-2.046 1.76-3.498 0-1.1-.396-2.046-1.1-2.596-.418-.352-.814-.528-1.76-.792 1.496-.726 2.178-1.716 2.178-3.19 0-1.188-.528-2.31-1.364-2.97-.748-.572-1.738-.814-3.234-.814h-9.394V26zm3.344-2.618v-3.586h4.928c1.012 0 1.518.088 1.914.308.462.286.748.836.748 1.474 0 .704-.374 1.364-.924 1.606-.374.154-.726.198-1.76.198h-4.906zm0-6.094v-3.344h4.51c.902 0 1.342.088 1.716.308.44.264.726.814.726 1.386 0 1.144-.748 1.65-2.464 1.65h-4.488zm22.825-6.38c-5.302 0-8.932 3.168-8.932 7.744 0 2.398.836 4.268 2.552 5.698 1.65 1.364 3.85 2.068 6.402 2.068 5.28 0 8.91-3.124 8.91-7.656 0-4.686-3.586-7.854-8.932-7.854zm0 2.706c3.058 0 5.192 2.09 5.192 5.06 0 2.948-2.178 5.06-5.192 5.06-3.08 0-5.214-2.09-5.214-5.104 0-2.948 2.156-5.016 5.214-5.016zM184.702 26h3.674l1.496-3.3h6.864l1.562 3.3h3.982l-7.194-14.674h-3.344L184.702 26zm6.38-5.896l2.2-4.884 2.266 4.884h-4.466zM204.632 26h3.344v-5.5h4.07c2.002 0 2.574.616 2.794 3.036.176 1.716.176 1.804.33 2.464h3.718c-.374-.77-.418-.924-.572-2.97-.154-2.816-.682-3.63-2.53-4.026.858-.308 1.254-.506 1.672-.858.836-.704 1.276-1.672 1.276-2.882 0-1.54-.704-2.816-1.87-3.432-.748-.374-1.672-.506-3.608-.506h-8.624V26zm3.344-8.206V14.12h4.356c.946 0 1.254.022 1.606.154.704.22 1.1.836 1.1 1.628 0 .792-.396 1.408-1.078 1.694-.374.154-.66.198-1.628.198h-4.356zm14.1 8.206h7.26c2.244 0 3.696-.242 4.752-.792 2.266-1.188 3.652-3.718 3.652-6.644 0-2.508-1.034-4.686-2.882-6.028-1.21-.88-2.64-1.21-5.214-1.21h-7.568V26zm3.366-2.794v-9.064h3.564c1.276 0 1.936.066 2.508.264 1.584.528 2.486 2.068 2.486 4.29 0 2.024-.726 3.454-2.046 4.114-.66.308-1.298.396-2.904.396h-3.608z" fill="#0FF"/><path d="M108.004 47.043v-1.302h-9.576v-5.166h8.862v-1.281h-8.862v-4.956h9.408v-1.302H97v14.007h11.004zm11.015-7.182l5.46-6.825h-1.743l-4.557 5.838-4.557-5.838h-1.764l5.439 6.825-5.712 7.182h1.743l4.851-6.195 4.767 6.195h1.764l-5.691-7.182zm15.656 7.182V34.338h5.355v-1.302h-12.243v1.302h5.418v12.705h1.47zm20.92 0v-1.302h-9.576v-5.166h8.862v-1.281h-8.862v-4.956h9.408v-1.302h-10.836v14.007h11.004zm18.218 0V33.036h-1.449v12.306l-9.912-12.306h-1.806v14.007h1.449V34.716l9.891 12.327h1.827zm16.593-10.059c-.105-1.26-.399-1.974-1.05-2.688-.966-1.05-2.478-1.596-4.41-1.596-3.36 0-5.544 1.617-5.544 4.095 0 1.365.693 2.415 1.995 3.003.651.294 1.302.42 3.801.84 1.848.315 2.457.462 3.003.714.84.378 1.239.966 1.239 1.848 0 1.785-1.701 2.94-4.326 2.94-1.995 0-3.339-.567-4.137-1.764-.378-.546-.504-1.029-.525-1.89h-1.47c.084 1.26.252 1.89.693 2.562.966 1.512 2.877 2.331 5.418 2.331 3.612 0 5.796-1.596 5.796-4.242 0-1.491-.798-2.646-2.184-3.15-.777-.294-.966-.336-3.633-.819-2.142-.378-2.142-.378-2.646-.525-1.05-.315-1.617-.987-1.617-1.953 0-1.659 1.596-2.751 4.074-2.751 2.52 0 3.99 1.071 4.137 3.045h1.386zm5.673 10.059h1.449V33.036h-1.449v14.007zm14.27-14.301c-4.431 0-7.539 3.003-7.539 7.245 0 4.368 3.045 7.35 7.497 7.35 2.142 0 4.053-.672 5.355-1.932 1.344-1.26 2.163-3.255 2.163-5.25 0-4.431-3.003-7.413-7.476-7.413zm-.021 1.239c3.696 0 6.048 2.352 6.048 6.069 0 3.612-2.457 6.048-6.069 6.048-3.633 0-6.069-2.457-6.069-6.111 0-3.612 2.436-6.006 6.09-6.006zm25.963 13.062V33.036h-1.449v12.306l-9.912-12.306h-1.806v14.007h1.449V34.716l9.891 12.327h1.827z" fill="#12FF72"/></symbol><symbol id="logo" viewBox="0 0 105 76"><g clip-path="url(#clip0)"><path d="M97.312 19.807a18.356 18.356 0 01-.2 1.621 22.77 22.77 0 01-.334 1.603 24.258 24.258 0 01-.983 3.128 21.748 21.748 0 01-3.252 5.69 19.046 19.046 0 01-4.941 4.357 20.313 20.313 0 01-2.957 1.487c-1.02.413-2.08.749-3.157 1.018l-.22-.97c1.04-.21 2.06-.498 3.062-.863a19.252 19.252 0 002.9-1.324 18.485 18.485 0 004.931-4.03c1.402-1.622 2.537-3.484 3.405-5.47a24.273 24.273 0 001.479-4.645c.105-.518.2-1.055.267-1.602zm-89.614 0c.057.537.152 1.074.267 1.612a24.268 24.268 0 001.478 4.644 21.271 21.271 0 003.406 5.47 18.485 18.485 0 004.931 4.03c.925.518 1.898.96 2.9 1.324 1.001.365 2.022.643 3.061.864l-.219.97a24.696 24.696 0 01-3.157-1.018 20.804 20.804 0 01-2.957-1.487 19.044 19.044 0 01-4.941-4.357 21.749 21.749 0 01-3.253-5.69 23.785 23.785 0 01-.982-3.128 29.83 29.83 0 01-.334-1.603 13.603 13.603 0 01-.2-1.631z" fill="#FF2C30"/><path d="M59.282 58.794l-2.394-2.37.667 3.31c0 .01.296 1.488.344 3.273.057 2.217-.277 3.906-.964 4.875-.4.566-.916.873-1.602.96a7.213 7.213 0 01-.754.047c-.925 0-1.574-.259-1.974-.786-.468-.615-.677-1.641-.64-3.052 0-.086.01-.182.01-.278.02-.413.067-.854.124-1.324.067-.48.143-.98.239-1.478.01-.03.01-.067.019-.096.19-.97.42-1.958.667-2.927.039-.134.067-.269.105-.403.153-.605.315-1.19.468-1.766.095-.355.19-.69.276-1.027.258-.95.601-1.948.964-2.993a66.195 66.195 0 001.078-3.282c.066-.22.124-.451.19-.672.01-.029.01-.057.02-.077l.009-.029v-.01a27.42 27.42 0 00.773-4.125c.019-.173.038-.355.047-.538a27.93 27.93 0 00.105-2.428c0-4.049-.887-8.434-2.7-13.31-.028-.085-.066-.172-.095-.268a63.56 63.56 0 00-.858-2.159c-.01-.01-.01-.029-.02-.038a77.77 77.77 0 00-1.249-2.812c-.057-.115-.114-.24-.18-.374-.01-.02-.02-.038-.03-.067a.29.29 0 00-.038-.077c-.763-1.583-2.031-4.232-2.337-6.852-.343-2.965.659-5.018 3.062-6.285.601-.317 1.202-.48 1.784-.48 1.784 0 3.31 1.468 4.13 2.85 1.202 2.006 2.585 2.466 2.738 2.514l1.259.384c.677.518 1.421.777 2.213.777h.01c.257 0 .753-.086 1.153-.633.897-1.228.964-4.5.144-7.149C64.728 3.37 59.968.931 59.767.825L58.138 0l.17 1.842.096 1.018a18.329 18.329 0 00-4.702-.307c-.363.019-.725.057-1.097.115-.2.028-.391.057-.592.105a12.788 12.788 0 00-4.387 1.718c-.048.029-.096.057-.143.096-.067.048-.134.086-.2.134-2.023 1.372-3.72 3.455-4.474 6.43-.286 1.132-.42 2.418-.401 3.819 0 .307.02.623.038.94.038.576.096 1.161.172 1.766.124.873.296 1.756.515 2.648a30.07 30.07 0 001.679 4.913c.229.519.639 1.66 1.097 3.177.076.25.563 1.928.658 2.264.181.662.362 1.363.534 2.083.133.537.267 1.122.4 1.727.105.499.21 1.008.315 1.545.086.47.182.95.258 1.44.048.278.086.556.134.834.162 1.094.295 2.217.372 3.32a29.004 29.004 0 01.057 1.382c0 .125.01.25.01.374 0 .279 0 .557-.01.826-.057 1.91-.515 4.135-1.011 6.045-.086.317-.172.624-.248.921a70.127 70.127 0 01-.83 2.706c-.048.144-.086.269-.124.375-.086.25-.134.412-.172.518-.076.268-.153.527-.22.787-.028.115-.057.22-.085.336-.086.316-.162.642-.239.95-.429 1.832-.686 3.55-.772 5.143a14.53 14.53 0 00-.029.902v.432c0 .22.01.45.02.672.009.191.018.393.037.575.143 1.718.535 3.263 1.164 4.616.2.432.43.844.687 1.238.095.144.19.288.286.422.162.22.334.441.505.643a9.928 9.928 0 003.52 2.61c.248.115.506.211.763.307l.515.173a10.93 10.93 0 002.738.46h.22a6.65 6.65 0 001.258-.115c.458-.086.907-.22 1.326-.412 1.145-.5 2.118-1.344 2.862-2.486a8.908 8.908 0 001.02-2.216c.506-1.632.61-3.484.306-5.297-.41-2.265-1.412-4.28-2.852-5.72zm-6.067-4.414a4.85 4.85 0 00-.305-.633 5.183 5.183 0 00-.181-.307c.057-.048.124-.096.181-.154.343-.288.668-.595.982-.92-.238.7-.477 1.371-.677 2.014zm.935-2.754c0 .01-.01.01 0 0-.467.5-.963.94-1.488 1.344-.057.038-.105.077-.162.115-.162-.24-.334-.47-.515-.7-.334-.432-.678-.855-1.002-1.286a13.28 13.28 0 01-.734-1.066c.381-.172.763-.364 1.135-.556 1.192-.643 2.327-1.42 3.32-2.332.009.01.018.01.028.02.21.153.41.325.6.508-.343 1.44-.762 2.744-1.182 3.953zm-4.817-4.414c.172-1.027.296-2.053.324-3.003v-.212c.706.586 1.479 1.066 2.26 1.497.478.27.964.528 1.441.797.334.192.668.384.992.605a15.633 15.633 0 01-3.243 2.034c-.39.182-.782.355-1.183.518a6.722 6.722 0 01-.42-1.104 5.7 5.7 0 01-.171-1.132zm.086 2.418c-.076.03-.162.058-.239.087-.133.048-.276.096-.41.144.086-.346.172-.71.248-1.066.115.288.248.567.4.835zm-.305-12.139c.086-.086.18-.163.267-.25.01.01.019.02.038.02.553.326 1.125.595 1.707.835.582.24 1.164.46 1.736.7.487.202.964.413 1.421.663-.19.191-.381.383-.581.566a12.986 12.986 0 01-2.395 1.708 8.96 8.96 0 01-1.316.595c-.114.038-.22.076-.334.105-.076-1.593-.276-3.272-.543-4.942zm6.257 10a6.236 6.236 0 00-.515-.49l.028-.029c.258-.25.506-.499.744-.767-.066.441-.162.873-.257 1.285zm.372-1.91a15.3 15.3 0 01-1.126 1.094c-.028.019-.057.048-.076.067-.324-.25-.668-.49-1.02-.71-.458-.298-.926-.585-1.384-.883-.887-.576-1.736-1.19-2.441-1.938.19-.058.362-.125.543-.202.487-.211.935-.46 1.374-.739a13.23 13.23 0 002.375-1.948c.21-.22.41-.45.6-.681.506.307.974.681 1.355 1.132.038.048.077.087.105.135a26.508 26.508 0 01-.305 4.673zm.296-4.837c-.01-.01-.01-.019-.02-.028a5.697 5.697 0 00-1.306-1.229c.086-.105.171-.22.248-.336.295-.412.563-.854.772-1.324a.493.493 0 00.048-.115c.143 1.065.22 2.073.258 3.032zm-.315-3.397c-.057.125-.115.26-.181.384a7.102 7.102 0 01-.83 1.229c-.096.115-.191.23-.286.335a12.416 12.416 0 00-1.45-.777c-.563-.269-1.135-.518-1.689-.787a13.908 13.908 0 01-1.535-.854c.133-.134.267-.268.39-.412a17.764 17.764 0 002.452-3.34c.096-.172.191-.345.286-.528a5.579 5.579 0 012.204 1.517c.286 1.132.496 2.207.639 3.233zm-.696-3.53a5.584 5.584 0 00-.859-.788 6.72 6.72 0 00-1.164-.681c.182-.355.344-.72.496-1.084.153-.384.296-.768.42-1.162.448 1.296.81 2.543 1.107 3.714zm-2.7-7.889a9.604 9.604 0 01-1.488-.086 3.774 3.774 0 01-.324-.048 8.625 8.625 0 00.973-1.766c.295.653.572 1.286.84 1.9zm-2.394-5.268c-.067.01-.143.01-.21.01a4.9 4.9 0 01-.648-.039 8.32 8.32 0 01-1.27-.278c-.018-.01-.037-.01-.056-.02.076-.076.162-.162.238-.249l.067-.076.067-.077.133-.163.124-.163.057-.087.058-.086c.228-.346.438-.7.6-1.075.258.816.544 1.593.84 2.303zm-.83-9.174c-.382-.355-.668-.815-.887-1.276a6.78 6.78 0 01-.515-1.708 3.826 3.826 0 01-.048-.336c.153 0 .315.01.468.029.324.029.648.086.972.153a10.61 10.61 0 012.061.71c-.973.691-1.631 1.526-2.05 2.428zm-1.478-4.76a5.94 5.94 0 01.219-1.16c.62-.423 1.278-.768 1.946-1.046.057 0 .105.01.162.01.277.028.544.086.81.153.249.067.497.153.735.259a10.267 10.267 0 00-.057 1.746c.029.355.067.72.172 1.066-.077-.356-.077-.71-.067-1.066.01-.355.048-.71.105-1.065.028-.192.067-.374.105-.566.439.23.83.537 1.163.93l.067-.047c-.257-.509-.667-.94-1.135-1.276.077-.298.162-.586.267-.864a12.1 12.1 0 011.67-.22c.39-.02.772-.03 1.125-.03 2.967 0 4.664.701 4.664.701l-.228-2.505s4.559 2.294 5.76 6.17c.955 3.071.478 6.44-.324 6.45h-.01c-1.497 0-2.45-1.325-3.1-2.419a.187.187 0 00-.161-.096c-.115 0-.239.106-.191.26.229.824.286 1.141.286 1.141s-1.126-.345-2.165-2.063c-.973-1.622-2.776-3.35-5.008-3.35-.715 0-1.478.183-2.26.596-.334.173-.64.364-.916.556a9.367 9.367 0 00-1.107-.585 8.512 8.512 0 00-1.955-.633 5.696 5.696 0 00-.563-.087 4.615 4.615 0 01-.01-.96zm-.61-.546c-.01.173-.01.355-.01.528.01.316.038.623.086.94a3.954 3.954 0 00-.477 0c-.086 0-.172.01-.268.02-.085 0-.171.009-.267.028-.2.02-.4.058-.6.096.476-.614.982-1.152 1.535-1.612zM44.82 8.81c.43-.231.887-.414 1.374-.52.076-.018.152-.037.238-.047.077-.01.162-.029.239-.038.162-.02.315-.039.477-.039h.047c.029.144.067.278.105.422.172.605.41 1.19.735 1.718.162.269.343.518.553.749.153.172.324.326.505.46a6.654 6.654 0 00-.524 1.756c-.2.173-.4.346-.61.509a7.668 7.668 0 01-.745.49c-.047.028-.095.057-.143.076a8.1 8.1 0 01-1.307-1.027 5.798 5.798 0 01-.648-.73 3.65 3.65 0 01-.277-.393 2.285 2.285 0 01-.124-.201c-.047-.067-.076-.134-.114-.211a5.105 5.105 0 01-.506-1.363 8.58 8.58 0 01.725-1.612zm3.663 6.294a11.294 11.294 0 01-1.126-.576s.01 0 .01-.01a8.49 8.49 0 00.706-.585c.162-.144.305-.297.458-.46a10.254 10.254 0 00-.048 1.631zm-4.74-3.54a5.894 5.894 0 00.467.748c.057.067.105.144.162.21.114.135.229.27.343.394.239.26.496.49.773.7.277.212.553.413.849.586l.458.26a6.437 6.437 0 01-.382.162 4.006 4.006 0 01-1.66.278 3.27 3.27 0 01-.81-.143 2.146 2.146 0 01-.372-.144c-.058-.03-.105-.058-.162-.077.019-1.085.124-2.082.333-2.975zm-.172 5.622a19.912 19.912 0 01-.143-1.804c.114.039.238.058.353.087.324.067.658.077.982.057a4.544 4.544 0 001.822-.518c.2-.105.4-.22.591-.345.02.01.048.019.067.038.41.192.82.355 1.25.49.066 1.045.286 2.11.591 3.108-.22.365-.467.701-.744 1.018l-.067.076-.066.077-.144.144-.143.134-.076.068-.076.067c-.134.115-.277.23-.42.336a8.96 8.96 0 01-1.87-.931c-.705-.47-1.325-1.075-1.745-1.785a10.313 10.313 0 00-.162-.317zm.858 4.012h-.019a26.837 26.837 0 01-.639-2.697c.124.125.248.24.372.355.343.297.725.557 1.116.777a8.743 8.743 0 001.812.758c-.42.27-.877.47-1.345.615a5.176 5.176 0 01-1.116.201c-.057-.02-.124-.01-.18-.01zm.22.767c.019 0 .038-.01.057-.01.143-.028.286-.057.43-.095.276-.077.552-.173.81-.288a5.608 5.608 0 001.44-.902c.067-.058.124-.106.181-.163.067.019.124.028.191.047.43.097.868.164 1.307.183.22.01.439.01.658-.01.076-.01.153-.019.22-.029.476 1.133.953 2.092 1.259 2.745.057.134.124.259.18.393-.076.144-.152.298-.238.442a9.244 9.244 0 01-1.049 1.458 12.33 12.33 0 01-2.423-.7c-.925-.384-1.793-.902-2.508-1.564a56.221 56.221 0 01-.515-1.507zm1.077 2.84c-.047-.095-.085-.201-.133-.297.133.077.267.163.4.23a9.58 9.58 0 001.546.682c.772.259 1.564.441 2.365.547-.057.067-.124.124-.18.192a8.981 8.981 0 01-2.852 1.9c-.487-1.565-.907-2.726-1.146-3.253zm1.345 3.945c.02-.01.029-.02.048-.02.372-.192.725-.412 1.068-.643.344-.24.668-.489.973-.767.306-.279.592-.576.859-.883.114-.135.229-.278.334-.422.152.019.305.028.458.038.515.029 1.04.029 1.554-.01a56.445 56.445 0 011.422 3.685c-.163.48-.353.95-.573 1.41-.172.365-.353.72-.553 1.066-.076-.029-.162-.067-.239-.096-.61-.23-1.25-.403-1.87-.576a27.54 27.54 0 01-1.85-.537 9.09 9.09 0 01-1.135-.47 63.013 63.013 0 00-.496-1.775zm.687 2.475c.267.096.534.183.801.26.63.182 1.269.306 1.908.44.63.135 1.26.27 1.86.471.067.02.134.038.19.067-.085.154-.18.298-.276.451a17.041 17.041 0 01-3.042 3.58c-.115-.087-.22-.183-.325-.27a61.967 61.967 0 00-1.116-4.999zm-.534 23.817c.105-.355.725-2.101 1.316-4.299.42-.153.84-.326 1.26-.499.267.394.562.768.867 1.123.544.634 1.126 1.229 1.622 1.871-.963.672-2.022 1.2-3.129 1.612-.62.24-1.259.442-1.898.624l-.181.058.143-.49zm.258 1.123c.639-.22 1.287-.46 1.907-.739 1.116-.49 2.194-1.084 3.157-1.842.067.086.125.182.182.268.152.24.295.49.41.759-.086.288-.172.585-.248.863-.324 1.219-.706 2.582-1.05 3.983-.42.25-.858.47-1.306.68-.172.078-.353.164-.534.24a12.284 12.284 0 01-1.47-1.439c-.667-.777-1.22-1.65-1.573-2.59l.525-.183zm4.254 3.752c-.115.49-.22.979-.325 1.459-.171-.106-.343-.22-.515-.326-.171-.116-.334-.24-.505-.365a17.755 17.755 0 001.345-.768zm-5.065-2.811c.429.777.963 1.477 1.564 2.101.458.47.954.902 1.469 1.295-.763.317-1.536.615-2.308.94a16.25 16.25 0 00-1.479.711c.077-1.497.315-3.167.754-5.047zm-.763 5.93c.095-.077.2-.144.305-.211a13.22 13.22 0 011.45-.816c.81-.403 1.66-.777 2.48-1.2.21.145.429.279.639.413.19.115.39.22.591.326-.305 1.536-.496 3.042-.429 4.338-.305.259-.63.49-.983.69-.066.049-.143.078-.219.116-.01 0-.01.01-.019.01-.01-.01-.028-.01-.038-.02a8.362 8.362 0 01-1.87-1.16c-.286-.231-.562-.48-.82-.74-.134-.124-.258-.268-.382-.403-.114-.134-.238-.278-.352-.422a14.847 14.847 0 01-.353-.46v-.461zm5.18 4.03c-.115-.01-.24-.019-.354-.048a3.395 3.395 0 01-.515-.134c.267-.192.515-.403.744-.624.029.288.067.557.124.806zm-4.532.432a13.07 13.07 0 01-.582-2.956c.086.077.163.164.248.24.144.125.287.26.43.384.295.25.6.48.915.691.592.394 1.23.73 1.899.97l-.172.076-.23.096-.228.086c-.076.03-.153.058-.239.077-.162.048-.314.096-.476.125a7.868 7.868 0 01-1.565.211zm2.26 3.78a4.079 4.079 0 01-.276-.297l.163.03c.333.057.667.095 1.01.105a3.219 3.219 0 01-.524.124c-.134.02-.248.03-.372.039zm12.363-3.511a3.156 3.156 0 00-.63-.749 2.12 2.12 0 00-.725-.422 1.56 1.56 0 00-.81-.058c.267-.019.534.039.772.154.239.115.439.278.62.47.325.355.534.797.668 1.257-.324 1.766-1.126 3.35-2.356 4.366.038-.23.057-.46.048-.681a3.083 3.083 0 00-.239-1.094 2.94 2.94 0 00-.582-.93 2.87 2.87 0 00-.4-.365 1.446 1.446 0 00-.487-.24c.172.057.315.163.449.278.133.115.247.25.352.394.2.287.363.604.468.94a3.1 3.1 0 01.124 1.017 2.833 2.833 0 01-.239.979c-.019.038-.028.067-.047.105a5.282 5.282 0 01-2.843.797h-.181a9.034 9.034 0 01-1.355-.144c.325-.288.573-.643.745-1.027a3.39 3.39 0 00.286-1.362c0-.461-.077-.912-.239-1.334.086.441.096.883.029 1.314a2.95 2.95 0 01-.448 1.18 2.55 2.55 0 01-.868.826 2.32 2.32 0 01-.42.182 9.296 9.296 0 01-3.491-1.804 3.615 3.615 0 001.116-.633c.047-.039.095-.077.143-.125.038-.01.086-.01.124-.02a6.28 6.28 0 001.02-.23c.334-.105.659-.23.954-.393-.591.25-1.23.374-1.87.413a4.67 4.67 0 00.506-.643 4.53 4.53 0 00.553-1.17 4.32 4.32 0 01-.715 1.045c-.277.307-.6.576-.944.777a6.106 6.106 0 01-1.746-.316c-.076-.03-.162-.048-.238-.077l-.23-.086-.085-.039a9.445 9.445 0 01-1.173-2.082 9.549 9.549 0 001.46-.365c.17-.057.333-.124.495-.192.086-.038.162-.077.248-.105.086-.039.162-.077.239-.115l.238-.125.229-.134.229-.144c.029-.02.067-.039.095-.058.22.058.44.096.668.115.124.01.258.02.382.01.362 1.67 1.373 2.773 3.472 2.773.276 0 .572-.02.877-.058 5.056-.633 3.1-10.325 3.1-10.325 2.156 2.12 2.995 5.374 2.652 8.253z" fill="#0FF"/><path d="M62.773 9.222c.152.423.353.7.524.883.23.24.23.24.382.01.162-.25.229-.893-.048-1.171-.153-.163-.21-.22-.362-.384-.22-.23-.62-.556-.554-.25.039.145-.01.73.058.912zM54.55 42.404a.813.813 0 00-.81.816c0 .451.362.816.81.816a.813.813 0 00.811-.816.813.813 0 00-.81-.816zm-1.688 7.043a.812.812 0 00-.81.816c0 .45.362.816.81.816.448 0 .81-.365.81-.816a.819.819 0 00-.81-.816zm-2.412 8.484c.4 0 .724-.326.724-.729a.727.727 0 00-.725-.73c-.4 0-.725.327-.725.73 0 .403.324.73.725.73zm3.357-20.986a.88.88 0 00.877-.883.88.88 0 00-.877-.882.88.88 0 00-.878.883.88.88 0 00.878.882zm-2.395-7.255a.878.878 0 00.878-.883.878.878 0 10-1.755 0 .87.87 0 00.877.883zm-2.852-6.161a.727.727 0 00.725-.73.727.727 0 00-.725-.729c-.4 0-.725.327-.725.73a.72.72 0 00.725.729zm-1.554-5.604c.342 0 .62-.28.62-.623a.622.622 0 00-.62-.624.621.621 0 00-.62.623c0 .345.277.624.62.624z" fill="#0FF"/><path d="M60.36 36.503c-.105-.93-.058-1.88.057-2.811.124-.94.343-1.862.63-2.774a16.419 16.419 0 012.699-5.028c1.182-1.506 2.613-2.812 4.187-3.896 1.574-1.084 3.281-1.957 5.046-2.648a32.84 32.84 0 012.69-.912c.906-.269 1.822-.49 2.747-.681 1.86-.365 3.73-.566 5.59-.682a72.388 72.388 0 015.589-.124c1.86.038 3.72.096 5.57.278-1.85.134-3.7.25-5.55.403-1.842.154-3.683.317-5.514.528-1.822.22-3.653.47-5.418.873a35.67 35.67 0 00-2.642.7 31.47 31.47 0 00-2.576.893c-1.688.662-3.319 1.468-4.826 2.447-.19.125-.382.25-.563.374l-.276.192-.268.202c-.18.134-.352.278-.534.412-.171.144-.353.288-.524.432a19.004 19.004 0 00-1.927 1.9 17.292 17.292 0 00-2.9 4.577 15.252 15.252 0 00-.877 2.61c-.115.451-.21.902-.277 1.363-.067.441-.124.912-.134 1.372z" fill="#9A39FF"/><path d="M82.87 21.216h.03a6.795 6.795 0 00-1.603-.806c.43.154.84.355 1.23.585.124.068.239.144.344.221z" fill="#FF0"/><path d="M67.743 30.487a11.497 11.497 0 001.984 4.078c.467.605.982 1.161 1.564 1.67.572.499 1.202.94 1.86 1.324a11.432 11.432 0 004.302 1.41c1.507.174 3.052.04 4.493-.393a11.488 11.488 0 003.968-2.11A11.368 11.368 0 0088.737 33a11.504 11.504 0 00.868-8.617 11.434 11.434 0 00-1.784-3.58h-.047a10.9 10.9 0 011.688 3.618 10.868 10.868 0 01-1.202 8.3 10.869 10.869 0 01-2.814 3.13 10.781 10.781 0 01-3.748 1.803 10.85 10.85 0 01-4.121.26 10.623 10.623 0 01-3.901-1.315 10.661 10.661 0 01-3.129-2.687 11.015 11.015 0 01-1.908-3.685 10.952 10.952 0 01-.42-3.934c-.285.21-.562.422-.82.614a11.31 11.31 0 00.344 3.579z" fill="#FFB000"/><path d="M71.577 27.368c.01.979.22 1.957.61 2.869a7.28 7.28 0 002.9 3.32 7.284 7.284 0 004.283 1.056 7.166 7.166 0 002.842-.797 7.185 7.185 0 002.27-1.842 7.445 7.445 0 001.355-2.543 7.369 7.369 0 00-.506-5.489 7.173 7.173 0 00-1.688-2.159 8.304 8.304 0 00-.734-.566h-.029c.258.182.506.384.744.595a6.688 6.688 0 011.545 2.207c.363.825.544 1.727.544 2.61a6.9 6.9 0 01-.505 2.572 6.504 6.504 0 01-1.422 2.13 6.76 6.76 0 01-2.07 1.42 6.548 6.548 0 01-4.826.173 5.914 5.914 0 01-1.116-.518 7.36 7.36 0 01-1.002-.72 6.728 6.728 0 01-1.526-1.948 6.764 6.764 0 01-.715-2.418 6.647 6.647 0 011.002-4.241c-.296.134-.592.278-.888.431a7.385 7.385 0 00-1.068 3.858z" fill="#FF0"/><path d="M60.36 36.503a5.38 5.38 0 01.105-.873 9.4 9.4 0 01.2-.864c.153-.576.363-1.132.592-1.68a16.448 16.448 0 011.793-3.099c1.421-1.938 3.214-3.58 5.18-4.951a29.37 29.37 0 013.07-1.852 31.127 31.127 0 011.603-.787c.267-.125.544-.24.82-.355.267-.115.563-.24.85-.346a19.184 19.184 0 011.735-.556 27.603 27.603 0 011.765-.403c1.173-.23 2.356-.375 3.53-.49a56.301 56.301 0 011.754-.144c.582-.038 1.174-.067 1.755-.096l1.746-.076 1.736-.068c.572-.019 1.154-.057 1.726-.086a49.314 49.314 0 001.708-.115c1.135-.106 2.26-.23 3.348-.46.276-.058.543-.125.81-.193.268-.067.535-.143.792-.23a11.7 11.7 0 001.517-.633 11.779 11.779 0 002.737-1.881 14.281 14.281 0 003.072-4.069 11.99 11.99 0 00.696-1.602c-.191 1.16-.591 2.284-1.106 3.358a13.206 13.206 0 01-2.003 2.985c-.401.45-.84.873-1.307 1.266-.468.384-.973.74-1.498 1.056-.524.317-1.078.595-1.65.825-.572.23-1.154.422-1.736.576a26.65 26.65 0 01-3.52.652c-1.173.154-2.346.25-3.51.327l-1.745.115-1.736.105c-.573.039-1.154.077-1.727.125-.572.048-1.145.096-1.707.154-1.135.115-2.26.268-3.367.47-1.107.211-2.185.48-3.224.844-.258.087-.506.192-.773.298-.267.105-.525.21-.782.326-.525.22-1.04.451-1.545.7a31.975 31.975 0 00-2.986 1.613c-1.927 1.18-3.72 2.571-5.256 4.25a18.547 18.547 0 00-2.06 2.726c-.296.49-.572.998-.82 1.516-.22.518-.44 1.056-.582 1.622z" fill="#005EFF"/><path d="M85.408 27.185c1.043 0 1.888-.85 1.888-1.9 0-1.05-.845-1.9-1.888-1.9s-1.889.85-1.889 1.9c0 1.05.846 1.9 1.889 1.9z" fill="#fff"/><path d="M44.64 36.503a11.13 11.13 0 00-.143-1.391c-.076-.46-.162-.912-.276-1.363a17.847 17.847 0 00-.878-2.61 17.293 17.293 0 00-2.9-4.577 19.017 19.017 0 00-1.926-1.9 26.944 26.944 0 00-.525-.432c-.181-.134-.353-.278-.534-.413l-.267-.201-.277-.192a7.15 7.15 0 00-.563-.374c-1.507-.989-3.138-1.795-4.826-2.447a40.822 40.822 0 00-2.576-.893 35.68 35.68 0 00-2.642-.7c-1.764-.403-3.586-.653-5.418-.874a175.54 175.54 0 00-5.513-.527c-1.84-.154-3.691-.269-5.551-.403 1.85-.183 3.71-.24 5.57-.279 1.86-.019 3.72.01 5.59.125 1.86.115 3.73.307 5.59.681.925.202 1.84.413 2.746.682a34.15 34.15 0 012.69.911c1.765.691 3.472 1.564 5.046 2.649 1.574 1.084 3.005 2.39 4.188 3.896a16.419 16.419 0 012.699 5.028c.286.902.515 1.833.63 2.773.123.95.18 1.9.066 2.831z" fill="#9A39FF"/><path d="M22.473 20.986c.39-.24.8-.432 1.23-.586a7.179 7.179 0 00-1.602.806h.028c.105-.067.22-.143.344-.22z" fill="#FF0"/><path d="M14.995 28.758a11.459 11.459 0 004.102 7.706 11.46 11.46 0 003.967 2.11 11.28 11.28 0 004.493.394 11.379 11.379 0 004.302-1.41 11.5 11.5 0 003.424-2.995 11.497 11.497 0 001.984-4.078c.305-1.16.41-2.38.343-3.57a20.347 20.347 0 00-.82-.614 10.742 10.742 0 01-.42 3.935 10.842 10.842 0 01-5.036 6.371 10.803 10.803 0 01-3.901 1.315 10.66 10.66 0 01-4.12-.259 10.78 10.78 0 01-3.75-1.804 10.745 10.745 0 01-2.813-3.128 11.04 11.04 0 01-1.431-4.011 11.03 11.03 0 01.229-4.29 10.812 10.812 0 011.688-3.617h-.048a11.642 11.642 0 00-1.783 3.579 11.402 11.402 0 00-.41 4.366z" fill="#FFB000"/><path d="M19.669 23.942a7.426 7.426 0 00-.782 2.668c-.096.94 0 1.9.276 2.821a7.318 7.318 0 003.625 4.385c.877.451 1.85.73 2.842.797a7.282 7.282 0 004.283-1.056 7.8 7.8 0 001.192-.902 7.52 7.52 0 001.708-2.418 7.48 7.48 0 00.61-2.869 7.295 7.295 0 00-1.059-3.848 15.12 15.12 0 00-.887-.432 6.645 6.645 0 011.002 4.242 6.882 6.882 0 01-.715 2.418 6.6 6.6 0 01-2.528 2.668 5.901 5.901 0 01-1.116.518 6.474 6.474 0 01-2.423.374 6.548 6.548 0 01-2.404-.547 6.762 6.762 0 01-2.07-1.42 6.607 6.607 0 01-1.42-2.13 6.542 6.542 0 01-.506-2.572 6.662 6.662 0 012.089-4.817c.229-.221.477-.413.744-.595h-.03a7.115 7.115 0 00-.735.566 7.048 7.048 0 00-1.697 2.15z" fill="#FF0"/><path d="M44.64 36.503a9.517 9.517 0 00-.6-1.632 12.859 12.859 0 00-.821-1.516c-.591-.978-1.297-1.88-2.06-2.725-1.536-1.68-3.33-3.07-5.256-4.25a32 32 0 00-2.986-1.613c-.505-.25-1.03-.47-1.545-.7-.257-.116-.524-.221-.782-.327a42.182 42.182 0 00-.773-.297 21.225 21.225 0 00-3.224-.845 43.052 43.052 0 00-3.367-.47 93.191 93.191 0 00-3.434-.278l-1.736-.106-1.745-.115a62.749 62.749 0 01-3.51-.326 26.365 26.365 0 01-3.52-.653 14.705 14.705 0 01-1.736-.575 11.526 11.526 0 01-1.65-.826 13.594 13.594 0 01-1.498-1.055 12.586 12.586 0 01-1.307-1.267 13.271 13.271 0 01-2.003-2.984C.591 12.887.191 11.755 0 10.593c.19.557.43 1.085.696 1.603a15.4 15.4 0 00.868 1.488c.64.95 1.374 1.833 2.204 2.581a11.998 11.998 0 004.254 2.514c.257.087.525.163.792.23.267.068.534.135.81.192 1.088.23 2.213.365 3.348.46a47.51 47.51 0 001.708.116l1.726.086 1.736.068 1.746.076c.582.03 1.163.058 1.755.096.582.039 1.173.087 1.755.144 1.173.115 2.356.26 3.53.49.59.115 1.172.25 1.764.403.582.153 1.164.336 1.736.556.286.106.572.221.849.346.276.115.543.24.82.355.544.25 1.078.508 1.603.787a28.667 28.667 0 013.071 1.852c1.965 1.362 3.758 3.013 5.18 4.951.705.97 1.316 2.006 1.793 3.1a12.1 12.1 0 01.791 2.543c.058.287.096.585.105.873z" fill="#005EFF"/><path d="M19.592 27.185c1.043 0 1.889-.85 1.889-1.9 0-1.05-.846-1.9-1.889-1.9-1.043 0-1.888.85-1.888 1.9 0 1.05.845 1.9 1.888 1.9z" fill="#fff"/><path d="M60.408 38.701c-.763 11.15 4.216 21.63 25.525 37.002l.038.03.048-.231.61-3.128c.02-.116 1.23-6.631-.43-14.394l.02-.01c-.01-.02-.02-.029-.029-.048-1.097-5.153-4.025-12.628-9.596-16.63-8.908-6.39-16.186-2.59-16.186-2.59zm2.298 7.034c-.6-3.07-.715-5.834-.715-5.834s.744-.144 3.53 1.689c.371.24 1.173.94 1.487 1.247.115.106.22.22.334.336 0 .01-.01.01-.01.02-.057.105-.123.21-.18.306l-.086.154-.077.153c-.057.106-.095.212-.143.317-.19.422-.343.864-.486 1.296a17.056 17.056 0 00-.582 2.667c-.029.22-.067.451-.086.672-.029.22-.048.45-.067.672-.028.45-.057.902-.047 1.353 0 .902.066 1.804.238 2.687-.105-.893-.095-1.785-.038-2.678.067-.892.2-1.765.4-2.629.21-.864.468-1.708.802-2.514.171-.403.353-.797.563-1.17.057-.097.104-.193.162-.28l.085-.133.086-.135c.029-.048.058-.086.086-.134.62.643 1.221 1.305 1.813 1.977.362.403.772.882 1.115 1.295 0 .01-.076.096-.143.192a4.37 4.37 0 00-.41.595c-.067.125-.143.259-.19.355-.239.48-.43.97-.592 1.478a12.656 12.656 0 00-.544 3.08 33.183 33.183 0 00-.047 3.08c.028.874.086 1.756.2 2.62-3.634-4.683-5.742-9.01-6.458-12.734zm9.281 16.093a62.714 62.714 0 01-2.785-3.311 24.712 24.712 0 01-.038-2.658c.038-1.017.114-2.034.239-3.042.143-.998.39-1.977.763-2.898a9.9 9.9 0 01.658-1.315c.124-.21.267-.412.41-.595.067-.086.133-.172.21-.259a66.586 66.586 0 012.728 3.58l-.048.067c-.019.029-.029.038-.038.057l-.029.048-.057.096c-.038.068-.076.125-.105.192a6.96 6.96 0 00-.505 1.151 10.28 10.28 0 00-.41 1.594 13.149 13.149 0 00-.153 3.234c.076 1.065.19 2.12.353 3.166.152.94.334 1.881.591 2.793a63.658 63.658 0 01-1.784-1.9zm1.794 1.91c-.2-.941-.325-1.891-.43-2.85a31.815 31.815 0 01-.162-3.158 12.79 12.79 0 01.391-3.08c.134-.5.296-.979.496-1.45a7.33 7.33 0 01.525-.988c.029-.048.067-.096.095-.134a73.52 73.52 0 012.995 4.683c-.028.058-.066.106-.095.163a6.508 6.508 0 00-.448.988 8.85 8.85 0 00-.372 1.373c-.181.93-.22 1.87-.172 2.792.048.921.143 1.843.277 2.754.114.787.257 1.584.457 2.351a108.701 108.701 0 01-3.557-3.445zm3.596 3.473c-.162-.787-.258-1.593-.344-2.39a26.444 26.444 0 01-.124-2.744c.01-.911.124-1.813.353-2.677.115-.432.258-.854.439-1.257.086-.202.19-.403.296-.586l.085-.144c1.126 1.949 3.148 6.056 3.148 6.056s-.276.278-.315.307c-.057.076-.114.144-.171.22-.105.154-.2.317-.277.48a3.747 3.747 0 00-.343 1.584c0 .182.01.355.019.537.038.355.086.7.162 1.046a10.275 10.275 0 001.383 3.387 181.442 181.442 0 01-4.311-3.819zm4.378 3.858a5.784 5.784 0 01-.286-.538 8.396 8.396 0 01-.41-.95 9.634 9.634 0 01-.64-3.023c-.01-.172 0-.335.01-.508a4.54 4.54 0 01.067-.5 3.19 3.19 0 01.334-.93 2.27 2.27 0 01.267-.403c.047-.067.105-.125.152-.182l.086-.087c.029-.028.057-.057.077-.067l.009-.01.029-.028c.01.019.019.029.019.048a85.07 85.07 0 012.127 4.99c.324.844.639 1.698.925 2.552.286.835.563 1.68.801 2.533-.086-.047-1.535-1.18-3.567-2.897zm3.596 2.83c-.22-.835-.468-1.65-.725-2.475a81.848 81.848 0 00-.878-2.572 79.516 79.516 0 00-2.031-5.048c.047 0 .086.01.133.01a3.171 3.171 0 011.364.537c.134.096.267.192.391.307.124.116.248.23.363.355.229.25.439.519.639.807.4.556.734 1.16 1.011 1.794.143.317.258.643.372.97 0 .009.01.028.01.038-.144 2.945-.544 4.826-.65 5.277zm.648-5.45a10.869 10.869 0 00-.295-.893 10.376 10.376 0 00-.935-1.87 9.186 9.186 0 00-.61-.855 13.39 13.39 0 00-.353-.403 4.966 4.966 0 00-.41-.355 3.516 3.516 0 00-1.479-.681 2.735 2.735 0 00-.277-.039c-.038 0-.076-.01-.114-.01a81.702 81.702 0 00-3.062-6.14h.02c.114.019.228.038.343.066.114.03.228.068.343.096l.343.116a9.82 9.82 0 011.326.623c.43.24.84.519 1.24.806a10.184 10.184 0 012.91 3.358c.238.443.448.893.629 1.373.172.451.315.922.4 1.392A50.044 50.044 0 0186 68.449zm-.457-8.78a48.33 48.33 0 01.467 5.354 7.771 7.771 0 00-.334-1.391c-.152-.48-.343-.96-.563-1.41a10.504 10.504 0 00-1.697-2.534 10.557 10.557 0 00-1.107-1.065 13.81 13.81 0 00-1.23-.912 9.763 9.763 0 00-1.355-.748c-.114-.058-.238-.096-.362-.154-.124-.048-.248-.096-.372-.125a5.97 5.97 0 00-.907-.124s-.934-1.622-1.402-2.39a64.047 64.047 0 00-1.383-2.169 8.169 8.169 0 011.202.125c.553.096 1.097.25 1.631.442.534.191 1.05.431 1.555.7.505.278.992.585 1.46.921a15.247 15.247 0 012.546 2.36c.382.442.744.903 1.078 1.383.229.335.448.671.658 1.026.038.221.076.47.115.71zm-.134-.845a13.758 13.758 0 00-.534-.97c-.305-.508-.63-.997-.992-1.467a15.654 15.654 0 00-2.442-2.591 12.513 12.513 0 00-3.052-1.89 11.761 11.761 0 00-1.727-.576c-.772-.202-1.888-.298-1.888-.298l-.077-.086s-1.793-2.37-2.709-3.541a8.019 8.019 0 011.087-.144 10.161 10.161 0 011.708.029c.573.057 1.135.153 1.698.297.143.039.277.067.42.115l.21.058.21.067c.276.087.553.183.82.288 1.068.422 2.06 1.065 2.976 1.794.458.365.906.749 1.326 1.162.21.201.41.393.6.604a26.865 26.865 0 012.366 7.15zm-2.48-7.408a19.025 19.025 0 00-.4-.451c-.401-.441-.82-.864-1.26-1.267a14.27 14.27 0 00-1.383-1.132 10.951 10.951 0 00-1.555-.93 9.073 9.073 0 00-.839-.346l-.21-.077-.21-.077-.429-.144a13.48 13.48 0 00-1.764-.412 10.578 10.578 0 00-1.822-.135c-.305 0-.62.02-.925.058-.153.02-.306.038-.468.067-.076.01-.153.029-.238.048-.01 0-.029.01-.038.01a46.567 46.567 0 00-1.088-1.315c-.43-.499-.858-.998-1.307-1.497.086-.01.172-.02.267-.029.267-.01.544-.019.82-.01.554.02 1.117.068 1.67.154a28.63 28.63 0 013.329.71c1.097.288 2.194.614 3.252 1.037.487.192.974.403 1.44.633a31.832 31.832 0 013.158 5.105zm-3.386-5.402a23.94 23.94 0 00-1.097-.576 25.917 25.917 0 00-3.214-1.305 28.364 28.364 0 00-3.358-.902 14.963 14.963 0 00-1.746-.25 9.205 9.205 0 00-.896-.038c-.153 0-.305.01-.458.019-.076 0-.305.038-.382.048 0 0-.992-1.152-2.384-2.12-2.347-1.642-3.358-1.546-3.53-1.69.22.02 4.016-1.449 8.49.327 6.849 2.706 8.556 6.458 8.575 6.486zm-43.41-8.07c-5.265.71-8.422 3.521-10.998 6.448a1.927 1.927 0 00-.133.153c-10.073 11.64-5.084 29.69-6.048 31.34-.162.28.029-.028.029-.028 21.757-15.392 26.116-28.116 25.64-36.177-.048-.806-3.206-2.447-8.49-1.736zm-9.834 6.947c7.774-8.464 15.386-5.547 15.7-5.604-.057.057-1.783-.413-7.096 4.51-.172.154-1.269.403-1.498.46-.114.039-.229.058-.343.077-.115.02-.23.039-.353.058a5.945 5.945 0 01-1.431 0c-.057-.01-.124-.01-.181-.02l-.181-.028-.182-.029-.19-.029-.191-.028-.191-.02-.19-.019-.192-.01a7.76 7.76 0 00-1.564.03c-.515.067-1.03.191-1.497.422a2.771 2.771 0 00-.458.278c.01-.01.019-.029.038-.048zm-.296.365l.115-.087a2.9 2.9 0 01.667-.336 4.41 4.41 0 011.45-.23c.496 0 .983.058 1.47.144l.18.038.182.039.18.038.182.048.181.048.191.048.19.048c.068.01.134.02.192.038a6.864 6.864 0 001.602.106c.134-.01.267-.02.41-.038.096-.02.2-.03.296-.048-.42.46-2.785 3.723-3.243 4.03-.191.125-.334.307-.515.441a5.22 5.22 0 01-1.154.682c-.41.163-.85.268-1.288.268-.22 0-.439-.019-.658-.067-.058-.01-.105-.029-.162-.038l-.182-.048c-.124-.029-.238-.058-.362-.077a4.128 4.128 0 00-1.498-.038 3.481 3.481 0 00-1.373.566 4.676 4.676 0 00-.802.7 27.069 27.069 0 013.75-6.275zm-3.882 6.583a5.825 5.825 0 011.05-.835c.4-.24.848-.394 1.296-.432.458-.048.916.019 1.364.144.115.029.22.067.334.096l.162.057c.058.02.125.039.182.058.248.077.505.125.763.144a4.097 4.097 0 001.526-.182 6.43 6.43 0 00.544-.202c-.601.97-2.395 4.558-3.406 5.076-.286.144-.581.298-.906.346a6.167 6.167 0 01-1.049.067c-.735 0-1.507-.038-2.26.125a3.113 3.113 0 00-1.069.422c-.038.029-.086.057-.124.086a30.07 30.07 0 011.593-4.97zm-1.622 5.124c.077-.048.143-.087.22-.125.324-.163.677-.24 1.04-.269.725-.057 1.44.058 2.184.144.19.02.372.048.572.058.096.01.19.01.296.01.048 0 .105 0 .152-.01.048 0 .105 0 .153-.01a3.305 3.305 0 001.126-.326c-.315.672-.62 1.353-.916 2.044 0 0-.792 1.775-.83 1.833a2.003 2.003 0 01-1.145.93 4.758 4.758 0 01-.791.154c-.563.067-1.145.115-1.708.307-.276.096-.543.23-.772.422-.115.096-.21.202-.296.317-.019.02-.029.048-.048.067a34.11 34.11 0 01.764-5.546zm-.753 5.613c.028-.038.057-.067.086-.105.095-.106.21-.192.324-.269.229-.153.496-.25.763-.307.544-.115 1.107-.096 1.679-.096.143 0 .286 0 .439-.01.152-.01.305-.028.457-.057.248-.058.497-.154.716-.288-.248.681-.486 1.363-.725 2.054-.22.633-.64 2.072-1.345 2.792-.105.115-.248.182-.381.24a.828.828 0 01-.22.067l-.133.038-.134.048a2.356 2.356 0 00-.887.586 2.679 2.679 0 00-.534.806 38.438 38.438 0 01-.105-5.499zm.353 10.968c-.086.068.105-1.928-.2-4.941-.02-.173-.03-.355-.048-.528.086-.125.171-.25.267-.365a2.4 2.4 0 01.362-.345c.258-.211.563-.346.878-.422l.114-.02.124-.019c.096-.02.191-.038.277-.067a1.77 1.77 0 00.496-.269.418.418 0 00.067-.057 461.16 461.16 0 00-2.299 7.005c-.01.01-.029.019-.038.028zm.124-.095c.849-2.37 1.707-4.74 2.585-7.101.057.24.172.441.286.633.248.384.524.71.696 1.103.172.384.23.816.191 1.248a5.087 5.087 0 01-.296 1.238 114.798 114.798 0 01-3.462 2.879zm3.453-2.88c.181-.383.324-.786.4-1.218.038-.22.058-.45.038-.672a2.332 2.332 0 00-.133-.671c-.143-.442-.42-.816-.61-1.19a2.12 2.12 0 01-.2-.566c-.163-.71.419-2.025.657-2.64.315-.825.64-1.65.973-2.475.115.326.258.633.43.921.42.681.963 1.228 1.383 1.833.21.307.381.624.486.979.105.345.143.72.115 1.094a4.45 4.45 0 01-.22 1.103 6.172 6.172 0 01-.296.797 88.536 88.536 0 01-3.023 2.706zm3.09-2.734c.124-.24.239-.48.334-.73.134-.354.258-.729.305-1.112a3.224 3.224 0 00-.038-1.171 4.066 4.066 0 00-.448-1.094c-.4-.672-.906-1.257-1.23-1.9a3.99 3.99 0 01-.363-1.008c-.134-.662.515-2.11.515-2.11a78.88 78.88 0 011.116-2.4c.105-.201.2-.412.305-.614.029.432.105.873.239 1.286.143.45.353.864.61 1.247.258.384.553.73.85 1.056.295.326.61.643.886.979.277.336.525.69.677 1.103.153.403.21.845.182 1.277-.029.44-.143.873-.286 1.295.171-.413.305-.835.372-1.286a3.207 3.207 0 00-.105-1.343c-.134-.442-.372-.835-.64-1.2-.267-.364-.553-.7-.83-1.046A7.9 7.9 0 0128.474 58a4.819 4.819 0 01-.487-1.17 4.96 4.96 0 01-.143-1.248l.01-.317c0-1.075 1.917-4.069 2.813-5.383l.134-.106c.01-.01.029-.019.038-.029-.01.164-.01.336-.01.5.03.642.182 1.285.44 1.861.123.288.276.566.438.835.038.067.086.134.124.192l.134.182.257.365c.344.49.697.97 1.04 1.449.343.49.668.97.935 1.497.133.259.238.528.324.806.086.278.134.566.143.864.029.585-.067 1.17-.21 1.736-2.346 2.726-5.16 5.48-7.688 7.802zm12.143-14.26l-.43.835c-.906 1.737-2.346 3.675-4.025 5.623.191-.556.344-1.142.353-1.736a4.142 4.142 0 00-.076-.912 4.614 4.614 0 00-.267-.873c-.23-.566-.525-1.094-.83-1.612-.305-.519-.62-1.027-.916-1.536l-.448-.758a5.001 5.001 0 01-.362-.758 4.488 4.488 0 01-.315-1.612c0-.547.114-1.084.315-1.593.104-.25.228-.499.372-.73.066-.114.143-.23.228-.335.039-.058 1.088-1.507 1.765-2.16.277-.268.792-.805 1.212-1.055-.02.048-.03.096-.048.144a2.995 2.995 0 00-.096.509 3.09 3.09 0 000 .518c.029.345.134.681.267.979.287.595.687 1.074 1.069 1.526.39.45.782.882 1.135 1.352.343.461.648.96.858 1.507.21.537.315 1.123.325 1.708 0 .298-.02.585-.058.883-.01.02-.019.058-.028.086zm.22-.979a5.031 5.031 0 00-.201-1.803 6.732 6.732 0 00-.773-1.66c-.324-.519-.696-.989-1.04-1.469-.343-.47-.677-.95-.867-1.449-.182-.499-.191-.998-.01-1.478.172-.48.22-.585.591-.998 3.015-3.444 5.962-3.55 5.962-3.55s1.02 3.598-3.768 13.166c.048-.25.086-.5.105-.758z" fill="#12FF72"/></g></symbol><symbol id="portable" viewBox="0 0 26 26"><path d="M20.777 8.104c0 .312-.105.625-.105.937-.104.313-.104.625-.208.938-.104.625-.312 1.145-.52 1.77-.417 1.146-1.042 2.188-1.771 3.125a9.045 9.045 0 01-2.813 2.396c-.52.313-1.042.625-1.667.834a8.804 8.804 0 01-1.77.52l-.105-.52c.625-.105 1.146-.313 1.667-.521.52-.209 1.146-.417 1.667-.73 1.041-.625 1.979-1.354 2.708-2.291.73-.938 1.458-1.98 1.875-3.021.208-.52.417-1.146.625-1.667.104-.312.104-.625.208-.833.104-.312.104-.625.209-.937z" fill="#fff" stroke="#fff" stroke-width=".25" stroke-miterlimit="10"/><path d="M11.714 18.833l-.208-.938h.208c.521-.104 1.146-.312 1.667-.52.52-.209 1.041-.417 1.562-.73 1.042-.52 1.98-1.354 2.709-2.187.729-.834 1.354-1.875 1.875-3.021.208-.521.416-1.146.625-1.667.104-.312.208-.625.208-.833.104-.313.104-.625.104-.833h.417c0 .312-.104.625-.104.937 0 .208-.105.625-.209.938-.104.625-.312 1.145-.52 1.77-.417 1.146-1.042 2.292-1.875 3.23a16.173 16.173 0 01-2.813 2.5 12.43 12.43 0 01-1.667.833c-.52.208-1.146.416-1.77.625l-.209-.104zm.313-.625v.104c.52-.104 1.041-.313 1.562-.521a9.408 9.408 0 001.458-.73c-.52.313-.937.522-1.458.626-.52.312-1.042.416-1.562.52z" fill="#fff" stroke="#fff" stroke-width=".25" stroke-miterlimit="10"/><path d="M.047 17.375c-.104-.52 0-1.042 0-1.563l.312-1.562c.313-1.042.834-1.98 1.459-2.813.833-.833 1.666-1.562 2.5-2.083.833-.52 1.875-1.041 2.812-1.458.521-.208 1.042-.313 1.458-.521.521-.104 1.042-.313 1.563-.417 1.042-.208 2.083-.312 3.125-.416 1.042-.104 2.083-.104 3.125-.104 1.042 0 2.083.104 3.125.104-1.042.104-2.083.104-3.125.208l-3.125.313c-1.042.104-2.083.312-3.02.52-.418.209-.938.313-1.355.521-.52.104-1.042.313-1.458.417-.938.416-1.875.833-2.709 1.354-.104.104-.208.208-.312.208-.104.104-.104.104-.209.104l-.104.105-.312.312c-.104 0-.209.104-.313.209-.416.312-.729.729-1.041 1.041-.625.73-1.25 1.563-1.667 2.5a6.023 6.023 0 00-.52 1.459c-.105.208-.105.52-.105.729 0 .312-.104.625-.104.833z" fill="#fff"/><path d="M12.651 8.834a3.119 3.119 0 00-.833-.417c.208.104.52.208.729.312 0 .105.104.105.104.105z" fill="#000"/><path d="M4.214 14.041c.208.834.625 1.563 1.145 2.292.313.313.521.625.834.938.312.312.625.52 1.041.729.73.416 1.563.729 2.396.833.834.104 1.667 0 2.5-.208.834-.209 1.563-.625 2.188-1.146a6.822 6.822 0 001.562-1.875c.417-.73.625-1.563.73-2.396.104-.833 0-1.667-.209-2.396a5.188 5.188 0 00-1.042-1.979c.417.625.73 1.25.938 1.98.208.728.208 1.562.104 2.395a5.054 5.054 0 01-.833 2.188c-.417.729-.938 1.25-1.563 1.77-.625.521-1.354.834-2.083 1.042-.625 0-1.458.104-2.188 0a6.028 6.028 0 01-2.187-.73 11.989 11.989 0 01-1.77-1.458c-.522-.624-.834-1.25-1.043-2.083-.208-.729-.312-1.458-.208-2.187a1.436 1.436 0 00-.417.312c-.104.625-.104 1.354.105 1.98z" fill="#fff" stroke="#fff" stroke-width=".25" stroke-miterlimit="10"/><path d="M10.36 19.042h-.73c-.833-.105-1.666-.417-2.5-.834-.416-.208-.729-.52-1.041-.729l-.938-.937c-.52-.834-.937-1.563-1.146-2.5-.208-.625-.208-1.354-.208-2.084v-.104l.104-.104c.104 0 .104-.104.208-.104.105-.104.209-.104.313-.209l.417-.312v.417c-.105.729 0 1.458.208 2.083.208.73.52 1.354 1.042 1.98.416.624 1.041 1.04 1.666 1.457.625.417 1.354.625 2.084.73.729.104 1.458 0 2.187-.105.73-.208 1.458-.52 1.98-.937.624-.417 1.145-1.042 1.562-1.667.416-.625.625-1.354.729-2.187.104-.73.104-1.563-.104-2.292a6.907 6.907 0 00-.938-1.979l-.208-.313h.52l.105.105c.416.625.833 1.354 1.041 2.083.209.833.313 1.667.209 2.5-.104.833-.313 1.667-.73 2.396-.416.833-.937 1.458-1.666 1.979-.73.52-1.458.938-2.292 1.25-.625.313-1.25.417-1.875.417zm-6.146-6.875c0 .625 0 1.25.208 1.875.208.833.625 1.562 1.042 2.187.312.313.52.625.833.938.312.208.625.52 1.042.729.729.416 1.562.625 2.291.729.833.104 1.667 0 2.396-.208a6.31 6.31 0 002.188-1.146h.104-.104c-.626.52-1.355.833-2.188 1.041-.833.209-1.563.209-2.396.105-.833-.105-1.562-.313-2.291-.73-.73-.416-1.355-.937-1.771-1.562-.521-.625-.834-1.354-1.146-2.083-.104-.625-.208-1.25-.208-1.875z" fill="#fff" stroke="#fff" stroke-width=".25" stroke-miterlimit="10"/><path d="M6.401 12.271c0 .521.104 1.042.313 1.563.208.52.52.937.937 1.354.209.208.417.312.625.52.209.105.521.313.73.313.52.209 1.041.313 1.666.209.52 0 1.146-.209 1.563-.417.52-.209.937-.625 1.25-1.042.312-.417.625-.937.729-1.458.104-.521.208-1.042.104-1.563 0-.52-.208-1.041-.417-1.458-.208-.417-.52-.833-.937-1.25-.104-.104-.313-.208-.417-.313.104.105.313.209.417.313.416.312.625.73.833 1.25.208.417.313.938.313 1.458 0 .521-.105.938-.313 1.459-.208.416-.417.833-.833 1.146-.313.312-.73.624-1.146.833a3.207 3.207 0 01-1.354.312c-.417 0-.938-.104-1.354-.208l-.625-.313c-.209-.104-.417-.208-.521-.416-.313-.313-.625-.625-.834-1.042-.208-.417-.312-.833-.416-1.354 0-.52 0-.938.104-1.458.312-.209.417-.521.625-.834-.208.104-.313.209-.52.313a.796.796 0 00-.21.52c-.208.521-.416 1.042-.312 1.563z" fill="#fff"/><path d="M.047 17.375c0-.208 0-.313.105-.52 0-.21.104-.313.104-.522l.312-.937c.313-.625.625-1.146 1.042-1.771.833-1.042 1.77-1.98 2.917-2.708.52-.417 1.145-.73 1.666-1.042.313 0 .625-.208.938-.313.104-.104.312-.104.416-.208.105-.104.313-.104.521-.208l.938-.313c.312-.104.625-.208.937-.208.625-.104 1.354-.208 1.98-.313.312 0 .624-.104.937-.104.312 0 .625 0 .937-.104h2.813c.312 0 .625 0 .937-.104.625-.104 1.25-.104 1.875-.208.104 0 .313-.104.417-.104.104 0 .313-.105.417-.105.312-.104.52-.208.833-.312.52-.313 1.042-.625 1.563-1.042.729-.52 1.145-1.042 1.562-1.562.208-.313.313-.521.52-.834.105-.208.21-.52.313-.833a6.622 6.622 0 01-.625 1.875c-.312.625-.625 1.146-1.146 1.667l-.729.729c-.312.208-.52.417-.833.625-.313.208-.625.312-.938.417l-.937.312a6.54 6.54 0 01-1.98.313c-.624.104-1.353.104-1.978.208l-.938.104-.937.104c-.313 0-.625 0-.938.104-.312 0-.625.104-.937.104-.625.105-1.25.105-1.875.313-.73-.104-1.354 0-1.875.208-.104 0-.313.104-.417.209-.208.104-.312.104-.52.208-.21.104-.522.208-.834.313-.521.312-1.146.52-1.667.937a12.777 12.777 0 00-2.916 2.396c-.417.52-.834.937-1.146 1.562a3.12 3.12 0 00-.417.834c-.208.208-.312.52-.417.833z" fill="#fff"/><path d="M.047 17.376s0-3.542 1.667-5.209C3.381 10.501 5.36 8.21 9.839 7.376c4.48-.834 7.5-.834 9.792-.73 3.541.105 4.062-1.25 4.062-1.25s-1.458 3.438-8.02 3.23L7.755 9.98 4.11 12.063c-1.458.625-2.604 1.771-3.333 3.125l-.73 2.188z" fill="#fff"/><path d="M10.672 16.23a3.958 3.958 0 100-7.917 3.958 3.958 0 000 7.916z" fill="#fff"/></symbol><symbol id="search" viewBox="0 0 24 24"><path d="M15.5 14h-.79l-.28-.27A6.471 6.471 0 0016 9.5 6.5 6.5 0 109.5 16c1.61 0 3.09-.59 4.23-1.57l.27.28v.79l5 4.99L20.49 19l-4.99-5zm-6 0C7.01 14 5 11.99 5 9.5S7.01 5 9.5 5 14 7.01 14 9.5 11.99 14 9.5 14z"/></symbol><symbol id="windows-10" viewBox="0 0 30 30"><g clip-path="url(#a)"><path d="M4.95 7.472l8.469-1.214.003 8.597-8.465.05-.007-7.433zm8.465 8.373l.006 8.604-8.465-1.225v-7.436l8.459.057zM14.442 6.1L25.67 4.375v10.37l-11.23.094V6.1zm11.231 9.826l-.002 10.324-11.23-1.668-.015-8.675 11.247.02z"/></g></symbol><symbol id="windows" viewBox="0 0 30 30"><path d="M18.09 6.83c.328.197.634.388.94.575 1.676 1.016 3.469 1.19 5.34.739.73-.175 1.43-.44 2.149-.666.1-.034.2-.073.356-.13-.111.39-.206.728-.3 1.067-.63 2.207-1.264 4.419-1.888 6.625a.448.448 0 01-.295.328c-1.325.575-2.684.976-4.137.987-1.414.006-2.689-.457-3.875-1.213-.562-.361-.562-.361-.379-1.005.669-2.342 1.331-4.69 2-7.031a2.62 2.62 0 01.088-.277zm-6.148 16.453c-.57-.322-1.1-.656-1.658-.928-1.586-.775-3.233-.78-4.903-.35-.653.17-1.29.413-1.938.622-.095.028-.184.062-.318.107.223-.775.43-1.516.642-2.251.52-1.804 1.039-3.615 1.553-5.419.05-.187.134-.294.329-.362 1.106-.424 2.228-.77 3.412-.9 1.625-.18 3.121.176 4.49 1.075.217.142.524.255.608.458.078.187-.09.481-.162.724-.659 2.337-1.318 4.667-1.982 6.998l-.073.226zm2.701-9.453c-.515-.299-.986-.602-1.478-.86-1.636-.855-3.345-.905-5.087-.422-.683.19-1.344.438-2.016.663-.084.028-.169.056-.297.101.218-.758.42-1.472.627-2.186.521-1.804 1.042-3.607 1.557-5.417a.543.543 0 01.37-.399c.964-.365 1.933-.674 2.952-.837 1.72-.275 3.322.028 4.806.938.286.174.69.32.79.58.095.24-.129.612-.218.926l-1.916 6.654c-.04.084-.062.162-.09.258zm9.521 2.984c-.59 2.097-1.17 4.143-1.748 6.189-.128.442-.245.89-.379 1.331-.028.096-.1.215-.184.25-1.414.589-2.868 1.025-4.416 1.008-1.37-.017-2.595-.487-3.73-1.235-.524-.34-.524-.34-.352-.952.674-2.363 1.342-4.726 2.016-7.09a3.49 3.49 0 01.084-.249c.395.238.774.465 1.158.692 1.487.861 3.085 1.042 4.74.753.857-.153 1.692-.413 2.533-.623.078-.017.156-.04.278-.074z"/></symbol><symbol id="apk" viewBox="0 0 22 22"><path d="M4.625 18.438h1.487v1.487c0 .935.766 1.7 1.7 1.7.936 0 1.7-.765 1.7-1.7v-1.487h2.976v1.487c0 .935.764 1.7 1.7 1.7.934 0 1.7-.765 1.7-1.7v-1.487h1.487v-9.35H4.625v9.35zM17.63.481a.746.746 0 00-.425-.106c-.297 0-.574.17-.744.425l-1.275 2.21a6.37 6.37 0 00-8.393 0L5.518.8a.857.857 0 00-.744-.425.967.967 0 00-.425.106.86.86 0 00-.319 1.169l1.573 2.741a6.466 6.466 0 00-.978 3.421h12.75c0-1.21-.34-2.4-.999-3.42L17.95 1.65a.865.865 0 00-.32-1.169zM8.556 6.112a.626.626 0 01-.637-.637c0-.361.276-.637.637-.637.362 0 .638.276.638.637a.626.626 0 01-.638.638zm4.888 0a.626.626 0 01-.638-.637c0-.361.277-.637.638-.637s.637.276.637.637a.626.626 0 01-.637.638zm6.906 2.976a1.28 1.28 0 00-1.275 1.275v4.25c0 .701.574 1.275 1.275 1.275s1.275-.574 1.275-1.275v-4.25a1.28 1.28 0 00-1.275-1.275zm-18.7 0a1.28 1.28 0 00-1.275 1.275v4.25c0 .701.574 1.275 1.275 1.275s1.275-.574 1.275-1.275v-4.25A1.28 1.28 0 001.65 9.088z"/></symbol><symbol id="gp" viewBox="0 0 20 22"><path d="M1.589.39c.394-.052.794.036 1.132.247L14.214 7.17l-2.908 2.944L1.589.389zm-.884.883a2.042 2.042 0 00-.08.593v18.266c-.002.2.024.4.08.592L10.43 11 .705 1.273zm10.61 10.61L1.588 21.61c.395.055.796-.032 1.132-.248l11.493-6.534-2.9-2.944zm7.532-2.069l-3.483-1.98-3.183 3.165 3.174 3.174 3.483-1.98c1.15-.655 1.15-1.733 0-2.388l.01.01z"/></symbol><symbol id="portable-2" viewBox="0 0 26 26"><path d="M20.777 8.104c0 .312-.105.625-.105.937-.104.313-.104.625-.208.938-.104.625-.312 1.145-.52 1.77-.417 1.146-1.042 2.188-1.771 3.125a9.045 9.045 0 01-2.813 2.396c-.52.313-1.042.625-1.667.834a8.804 8.804 0 01-1.77.52l-.105-.52c.625-.105 1.146-.313 1.667-.521.52-.209 1.146-.417 1.667-.73 1.041-.625 1.979-1.354 2.708-2.291.73-.938 1.458-1.98 1.875-3.021.208-.52.417-1.146.625-1.667.104-.312.104-.625.208-.833.104-.312.104-.625.209-.937z"/><path d="M11.714 18.833l-.208-.938h.208c.521-.104 1.146-.312 1.667-.52.52-.209 1.041-.417 1.562-.73 1.042-.52 1.98-1.354 2.709-2.187.729-.834 1.354-1.875 1.875-3.021.208-.521.416-1.146.625-1.667.104-.312.208-.625.208-.833.104-.313.104-.625.104-.833h.417c0 .312-.104.625-.104.937 0 .208-.105.625-.209.938-.104.625-.312 1.145-.52 1.77-.417 1.146-1.042 2.292-1.875 3.23a16.173 16.173 0 01-2.813 2.5 12.43 12.43 0 01-1.667.833c-.52.208-1.146.416-1.77.625l-.209-.104zm.313-.625v.104c.52-.104 1.041-.313 1.562-.521a9.408 9.408 0 001.458-.73c-.52.313-.937.522-1.458.626-.52.312-1.042.416-1.562.52zm-11.98-.833c-.104-.52 0-1.042 0-1.563l.312-1.562c.313-1.042.834-1.98 1.459-2.813.833-.833 1.666-1.562 2.5-2.083.833-.52 1.875-1.041 2.812-1.458.521-.208 1.042-.313 1.458-.521.521-.104 1.042-.313 1.563-.417 1.042-.208 2.083-.312 3.125-.416 1.042-.104 2.083-.104 3.125-.104 1.042 0 2.083.104 3.125.104-1.042.104-2.083.104-3.125.208l-3.125.313c-1.042.104-2.083.312-3.02.52-.418.209-.938.313-1.355.521-.52.104-1.042.313-1.458.417-.938.416-1.875.833-2.709 1.354-.104.104-.208.208-.312.208-.104.104-.104.104-.209.104l-.104.105-.312.312c-.104 0-.209.104-.313.209-.416.312-.729.729-1.041 1.041-.625.73-1.25 1.563-1.667 2.5a6.023 6.023 0 00-.52 1.459c-.105.208-.105.52-.105.729 0 .312-.104.625-.104.833z"/><path d="M12.651 8.834a3.119 3.119 0 00-.833-.417c.208.104.52.208.729.312 0 .105.104.105.104.105zm-8.437 5.207c.208.834.625 1.563 1.145 2.292.313.313.521.625.834.938.312.312.625.52 1.041.729.73.416 1.563.729 2.396.833.834.104 1.667 0 2.5-.208.834-.209 1.563-.625 2.188-1.146a6.822 6.822 0 001.562-1.875c.417-.73.625-1.563.73-2.396.104-.833 0-1.667-.209-2.396a5.188 5.188 0 00-1.042-1.979c.417.625.73 1.25.938 1.98.208.728.208 1.562.104 2.395a5.054 5.054 0 01-.833 2.188c-.417.729-.938 1.25-1.563 1.77-.625.521-1.354.834-2.083 1.042-.625 0-1.458.104-2.188 0a6.028 6.028 0 01-2.187-.73 11.989 11.989 0 01-1.77-1.458c-.522-.624-.834-1.25-1.043-2.083-.208-.729-.312-1.458-.208-2.187a1.436 1.436 0 00-.417.312c-.104.625-.104 1.354.105 1.98z"/><path d="M10.36 19.042h-.73c-.833-.105-1.666-.417-2.5-.834-.416-.208-.729-.52-1.041-.729l-.938-.937c-.52-.834-.937-1.563-1.146-2.5-.208-.625-.208-1.354-.208-2.084v-.104l.104-.104c.104 0 .104-.104.208-.104.105-.104.209-.104.313-.209l.417-.312v.417c-.105.729 0 1.458.208 2.083.208.73.52 1.354 1.042 1.98.416.624 1.041 1.04 1.666 1.457.625.417 1.354.625 2.084.73.729.104 1.458 0 2.187-.105.73-.208 1.458-.52 1.98-.937.624-.417 1.145-1.042 1.562-1.667.416-.625.625-1.354.729-2.187.104-.73.104-1.563-.104-2.292a6.907 6.907 0 00-.938-1.979l-.208-.313h.52l.105.105c.416.625.833 1.354 1.041 2.083.209.833.313 1.667.209 2.5-.104.833-.313 1.667-.73 2.396-.416.833-.937 1.458-1.666 1.979-.73.52-1.458.938-2.292 1.25-.625.313-1.25.417-1.875.417zm-6.146-6.875c0 .625 0 1.25.208 1.875.208.833.625 1.562 1.042 2.187.312.313.52.625.833.938.312.208.625.52 1.042.729.729.416 1.562.625 2.291.729.833.104 1.667 0 2.396-.208a6.31 6.31 0 002.188-1.146c-.626.52-1.355.833-2.188 1.041-.833.209-1.563.209-2.396.105-.833-.105-1.562-.313-2.291-.73-.73-.416-1.355-.937-1.771-1.562-.521-.625-.834-1.354-1.146-2.083-.104-.625-.208-1.25-.208-1.875z"/><path d="M6.401 12.271c0 .521.104 1.042.313 1.563.208.52.52.937.937 1.354.209.208.417.312.625.52.209.105.521.313.73.313.52.209 1.041.313 1.666.209.52 0 1.146-.209 1.563-.417.52-.209.937-.625 1.25-1.042.312-.417.625-.937.729-1.458.104-.521.208-1.042.104-1.563 0-.52-.208-1.041-.417-1.458-.208-.417-.52-.833-.937-1.25-.104-.104-.313-.208-.417-.313.104.105.313.209.417.313.416.312.625.73.833 1.25.208.417.313.938.313 1.458 0 .521-.105.938-.313 1.459-.208.416-.417.833-.833 1.146-.313.312-.73.624-1.146.833a3.207 3.207 0 01-1.354.312c-.417 0-.938-.104-1.354-.208l-.625-.313c-.209-.104-.417-.208-.521-.416-.313-.313-.625-.625-.834-1.042-.208-.417-.312-.833-.416-1.354 0-.52 0-.938.104-1.458.312-.209.417-.521.625-.834-.208.104-.313.209-.52.313a.796.796 0 00-.21.52c-.208.521-.416 1.042-.312 1.563z"/><path d="M.047 17.375c0-.208 0-.313.105-.52 0-.21.104-.313.104-.522l.312-.937c.313-.625.625-1.146 1.042-1.771.833-1.042 1.77-1.98 2.917-2.708.52-.417 1.145-.73 1.666-1.042.313 0 .625-.208.938-.313.104-.104.312-.104.416-.208.105-.104.313-.104.521-.208l.938-.313c.312-.104.625-.208.937-.208.625-.104 1.354-.208 1.98-.313.312 0 .624-.104.937-.104.312 0 .625 0 .937-.104h2.813c.312 0 .625 0 .937-.104.625-.104 1.25-.104 1.875-.208.104 0 .313-.104.417-.104.104 0 .313-.105.417-.105.312-.104.52-.208.833-.312.52-.313 1.042-.625 1.563-1.042.729-.52 1.145-1.042 1.562-1.562.208-.313.313-.521.52-.834.105-.208.21-.52.313-.833a6.622 6.622 0 01-.625 1.875c-.312.625-.625 1.146-1.146 1.667l-.729.729c-.312.208-.52.417-.833.625-.313.208-.625.312-.938.417l-.937.312a6.54 6.54 0 01-1.98.313c-.624.104-1.353.104-1.978.208l-.938.104-.937.104c-.313 0-.625 0-.938.104-.312 0-.625.104-.937.104-.625.105-1.25.105-1.875.313-.73-.104-1.354 0-1.875.208-.104 0-.313.104-.417.209-.208.104-.312.104-.52.208-.21.104-.522.208-.834.313-.521.312-1.146.52-1.667.937a12.777 12.777 0 00-2.916 2.396c-.417.52-.834.937-1.146 1.562a3.12 3.12 0 00-.417.834c-.208.208-.312.52-.417.833z"/><path d="M.047 17.376s0-3.542 1.667-5.209C3.381 10.501 5.36 8.21 9.839 7.376c4.48-.834 7.5-.834 9.792-.73 3.541.105 4.062-1.25 4.062-1.25s-1.458 3.438-8.02 3.23L7.755 9.98 4.11 12.063c-1.458.625-2.604 1.771-3.333 3.125l-.73 2.188z"/><path d="M10.672 16.23a3.958 3.958 0 100-7.917 3.958 3.958 0 000 7.916z"/></symbol><symbol id="windows10" viewBox="0 0 22 23"><path d="M.95 3.472l8.469-1.214.004 8.597-8.466.05L.95 3.473zm8.465 8.373l.006 8.604-8.465-1.225v-7.436l8.459.057zM10.442 2.1L21.67.375v10.37l-11.23.094V2.1zm11.231 9.826l-.002 10.324-11.23-1.668-.015-8.675 11.247.02z"/></symbol><symbol id="windows7" viewBox="0 0 24 22"><path d="M15.09 2.83c.328.197.634.389.94.575 1.676 1.016 3.469 1.19 5.34.739.73-.175 1.43-.44 2.149-.666.1-.034.2-.073.356-.13-.111.39-.206.728-.3 1.067-.63 2.207-1.264 4.419-1.888 6.625a.448.448 0 01-.295.328c-1.325.575-2.684.976-4.137.987-1.414.006-2.689-.457-3.875-1.213-.562-.361-.562-.361-.379-1.005.669-2.342 1.331-4.69 2-7.031a2.62 2.62 0 01.088-.277zM8.942 19.283c-.57-.322-1.1-.656-1.658-.928-1.586-.775-3.233-.78-4.903-.35-.653.17-1.29.413-1.938.622-.095.028-.184.062-.318.107.223-.775.43-1.516.642-2.251.52-1.804 1.039-3.615 1.553-5.419.05-.187.134-.294.329-.362 1.106-.424 2.228-.77 3.412-.9 1.625-.18 3.121.176 4.49 1.075.217.142.524.255.608.458.078.187-.09.481-.162.724-.659 2.337-1.318 4.667-1.982 6.998-.022.073-.05.152-.073.226zm2.701-9.453c-.515-.299-.986-.602-1.478-.86-1.636-.855-3.345-.905-5.087-.422-.683.19-1.344.438-2.016.663-.084.028-.169.056-.297.101.218-.759.42-1.472.627-2.186.521-1.804 1.042-3.607 1.557-5.417a.543.543 0 01.37-.399C6.283.945 7.252.636 8.271.473c1.72-.275 3.322.028 4.806.938.286.174.69.32.79.58.095.24-.129.612-.218.926l-1.916 6.654c-.04.084-.062.163-.09.258zm9.521 2.984c-.59 2.097-1.17 4.143-1.748 6.189-.128.442-.245.89-.379 1.331-.028.096-.1.215-.184.25-1.414.589-2.868 1.025-4.416 1.008-1.37-.017-2.595-.487-3.73-1.235-.524-.34-.524-.34-.352-.952.674-2.363 1.342-4.726 2.016-7.09a3.49 3.49 0 01.084-.249c.395.238.774.465 1.158.692 1.487.861 3.085 1.042 4.74.753.857-.153 1.692-.413 2.533-.623.078-.017.156-.04.278-.074z"/></symbol><symbol id="fb" viewBox="0 0 8 16"><path d="M5.164 15.498v-6.83h2.304l.343-2.675H5.164V4.29c0-.772.215-1.3 1.323-1.3H7.89V.606A18.613 18.613 0 005.834.5C3.797.5 2.399 1.743 2.399 4.026v1.962H.109v2.675h2.295v6.835h2.76z"/></symbol><symbol id="tg" viewBox="0 0 18 14"><path d="M16.22.098L1.447 5.795C.437 6.2.443 6.763 1.26 7.014l3.793 1.183L13.83 2.66c.415-.253.794-.117.482.16l-7.11 6.417H7.2h.002l-.262 3.91c.383 0 .552-.175.767-.383l1.843-1.791 3.832 2.83c.707.39 1.215.19 1.39-.654L17.29 1.293c.258-1.033-.394-1.5-1.068-1.195z"/></symbol><symbol id="vk" viewBox="0 0 18 10"><path d="M16.982.713c.117-.388 0-.672-.551-.672h-1.828c-.465 0-.677.246-.794.516 0 0-.93 2.266-2.246 3.735-.425.427-.619.562-.85.562-.116 0-.285-.135-.285-.522V.712c0-.464-.134-.671-.522-.671H7.035c-.29 0-.465.215-.465.42 0 .44.658.542.726 1.782v2.69c0 .589-.106.696-.34.696-.619 0-2.125-2.274-3.02-4.877-.174-.506-.35-.71-.816-.71H1.293C.771.042.667.288.667.558c0 .485.619 2.885 2.884 6.059 1.51 2.167 3.635 3.342 5.572 3.342 1.161 0 1.304-.26 1.304-.71V7.61c0-.521.111-.626.479-.626.27 0 .735.136 1.819 1.18 1.238 1.239 1.443 1.795 2.139 1.795h1.827c.521 0 .782-.261.632-.776-.164-.513-.756-1.259-1.54-2.141-.427-.503-1.065-1.045-1.259-1.316-.27-.35-.192-.503 0-.813 0 0 2.227-3.134 2.458-4.2z"/></symbol></svg>